<svg width="24" height="24" viewBox="0 0 24 24" fill="none" xmlns="http://www.w3.org/2000/svg">
<path fill-rule="evenodd" clip-rule="evenodd" d="M16.3155 6.75V5.877C16.3155 4.71615 15.8544 3.60284 15.0335 2.78199C14.2127 1.96115 13.0994 1.5 11.9385 1.5C10.7776 1.5 9.66434 1.96115 8.84349 2.78199C8.02265 3.60284 7.5615 4.71615 7.5615 5.877V6.75H6.312L3.8175 4.2435L2.928 5.1285L5.3445 7.557L5.316 7.6305C4.81106 8.98908 4.55546 10.4276 4.5615 11.877C4.5615 12.171 4.572 12.462 4.5915 12.747L4.596 12.8145H1.5V14.0685H4.7535L4.7625 14.1195C5.0205 15.531 5.5185 16.8225 6.1935 17.916L6.2445 17.9985L3.3 20.943L4.188 21.831L6.9945 19.023L7.0815 19.122C8.3835 20.61 10.0845 21.5055 11.9385 21.5055C13.7655 21.5055 15.4425 20.637 16.737 19.1895L16.8225 19.0935L19.6875 21.9735L20.577 21.087L17.583 18.078L17.6355 17.994C18.336 16.884 18.8505 15.5655 19.1145 14.1195L19.1235 14.0685H22.38V12.8145H19.2825L19.287 12.7485C19.307 12.4589 19.317 12.1688 19.317 11.8785C19.323 10.4102 19.0602 8.95316 18.5415 7.5795L18.513 7.5045L20.868 5.1495L19.98 4.2645L17.493 6.75H16.3155ZM8.8155 6.75V5.877C8.8155 5.04873 9.14453 4.25438 9.73021 3.66871C10.3159 3.08303 11.1102 2.754 11.9385 2.754C12.7668 2.754 13.5611 3.08303 14.1468 3.66871C14.7325 4.25438 15.0615 5.04873 15.0615 5.877V6.75H8.817H8.8155ZM17.361 8.0055L17.391 8.085C17.8155 9.2145 18.0615 10.5 18.0615 11.877C18.0615 14.292 17.307 16.428 16.1505 17.9325C14.9955 19.434 13.494 20.25 11.9385 20.25C10.3845 20.25 8.883 19.434 7.728 17.9325C6.57 16.428 5.8155 14.292 5.8155 11.877C5.8155 10.5 6.0615 9.2145 6.4875 8.085L6.5175 8.0055H17.361Z" fill="#F6F7F9"/>
<path fill-rule="evenodd" clip-rule="evenodd" d="M11.9997 9.33337C12.1765 9.33337 12.3461 9.40361 12.4711 9.52864C12.5961 9.65366 12.6663 9.82323 12.6663 10V16C12.6663 16.1769 12.5961 16.3464 12.4711 16.4714C12.3461 16.5965 12.1765 16.6667 11.9997 16.6667C11.8229 16.6667 11.6533 16.5965 11.5283 16.4714C11.4032 16.3464 11.333 16.1769 11.333 16V10C11.333 9.82323 11.4032 9.65366 11.5283 9.52864C11.6533 9.40361 11.8229 9.33337 11.9997 9.33337ZM11.9997 18.6667C12.1765 18.6667 12.3461 18.5965 12.4711 18.4714C12.5961 18.3464 12.6663 18.1769 12.6663 18C12.6663 17.8232 12.5961 17.6537 12.4711 17.5286C12.3461 17.4036 12.1765 17.3334 11.9997 17.3334C11.8229 17.3334 11.6533 17.4036 11.5283 17.5286C11.4032 17.6537 11.333 17.8232 11.333 18C11.333 18.1769 11.4032 18.3464 11.5283 18.4714C11.6533 18.5965 11.8229 18.6667 11.9997 18.6667Z" fill="#F6F7F9"/>
</svg>
