<svg width="464" height="298" viewBox="0 0 464 298" fill="none" xmlns="http://www.w3.org/2000/svg">
<g clip-path="url(#clip0_334_10474)">
<path d="M452.647 298.667H11.709C8.69903 298.663 5.81332 297.467 3.68494 295.341C1.55657 293.215 0.359359 290.333 0.355957 287.326V15.7352C0.35841 13.5324 1.23547 11.4206 2.79471 9.86306C4.35395 8.30548 6.46805 7.4293 8.67319 7.42676H455.538C457.782 7.4293 459.932 8.32061 461.519 9.90513C463.105 11.4896 463.997 13.638 464 15.8788V287.326C463.996 290.333 462.799 293.215 460.671 295.341C458.542 297.467 455.657 298.663 452.647 298.667V298.667Z" fill="#F2F2F2"/>
<path d="M438.391 284.349H27.4482C21.4242 284.349 16.5234 279.764 16.5234 274.13V37.6247C16.5234 33.4458 20.1551 30.0459 24.619 30.0459H441.086C445.624 30.0459 449.315 33.5019 449.315 37.7495V274.13C449.315 279.764 444.414 284.349 438.391 284.349Z" fill="white"/>
<path d="M463.842 17.1484H0.197266V11.3747C0.20163 8.3581 1.40373 5.46636 3.53984 3.33392C5.67594 1.20149 8.57161 0.00250136 11.5916 0H452.448C455.468 0.00247592 458.364 1.20145 460.5 3.33389C462.636 5.46633 463.838 8.35809 463.842 11.3747V17.1484Z" fill="#3F3D56"/>
<path d="M20.9043 11.5355C22.532 11.5355 23.8516 10.2174 23.8516 8.59147C23.8516 6.96554 22.532 5.64746 20.9043 5.64746C19.2766 5.64746 17.957 6.96554 17.957 8.59147C17.957 10.2174 19.2766 11.5355 20.9043 11.5355Z" fill="white"/>
<path d="M32.0918 11.5355C33.7195 11.5355 35.0391 10.2174 35.0391 8.59147C35.0391 6.96554 33.7195 5.64746 32.0918 5.64746C30.4641 5.64746 29.1445 6.96554 29.1445 8.59147C29.1445 10.2174 30.4641 11.5355 32.0918 11.5355Z" fill="white"/>
<path d="M43.2788 11.5355C44.9065 11.5355 46.2261 10.2174 46.2261 8.59147C46.2261 6.96554 44.9065 5.64746 43.2788 5.64746C41.6511 5.64746 40.3315 6.96554 40.3315 8.59147C40.3315 10.2174 41.6511 11.5355 43.2788 11.5355Z" fill="white"/>
<path d="M223.17 81.7578H142.799C141.6 81.7578 140.451 81.2823 139.604 80.436C138.757 79.5897 138.281 78.4418 138.281 77.2449C138.281 76.048 138.757 74.9001 139.604 74.0537C140.451 73.2074 141.6 72.7319 142.799 72.7319H223.17C224.368 72.7319 225.517 73.2074 226.365 74.0537C227.212 74.9001 227.688 76.048 227.688 77.2449C227.688 78.4418 227.212 79.5897 226.365 80.436C225.517 81.2823 224.368 81.7578 223.17 81.7578V81.7578Z" fill="#CCCCCC"/>
<path d="M323.04 81.7578H242.668C241.47 81.7578 240.321 81.2823 239.474 80.436C238.626 79.5897 238.15 78.4418 238.15 77.2449C238.15 76.048 238.626 74.9001 239.474 74.0537C240.321 73.2074 241.47 72.7319 242.668 72.7319H323.04C324.238 72.7319 325.387 73.2074 326.234 74.0537C327.082 74.9001 327.558 76.048 327.558 77.2449C327.558 78.4418 327.082 79.5897 326.234 80.436C325.387 81.2823 324.238 81.7578 323.04 81.7578V81.7578Z" fill="#CCCCCC"/>
<path d="M323.04 98.8594H183.222C182.024 98.8594 180.875 98.3839 180.027 97.5375C179.18 96.6912 178.704 95.5433 178.704 94.3464C178.704 93.1495 179.18 92.0016 180.027 91.1553C180.875 90.309 182.024 89.8335 183.222 89.8335H323.04C324.238 89.8335 325.387 90.309 326.234 91.1553C327.082 92.0016 327.558 93.1495 327.558 94.3464C327.558 95.5433 327.082 96.6912 326.234 97.5375C325.387 98.3839 324.238 98.8594 323.04 98.8594Z" fill="#CCCCCC"/>
<path d="M223.17 64.4189H142.798C141.601 64.4175 140.454 63.9413 139.607 63.0952C138.761 62.249 138.286 61.1019 138.286 59.906C138.286 58.7101 138.761 57.563 139.607 56.7168C140.454 55.8707 141.601 55.3945 142.798 55.3931H223.17C223.764 55.3923 224.352 55.5085 224.901 55.735C225.449 55.9615 225.948 56.2938 226.368 56.7129C226.788 57.132 227.122 57.6298 227.349 58.1777C227.576 58.7256 227.693 59.3129 227.693 59.906C227.693 60.4991 227.576 61.0864 227.349 61.6343C227.122 62.1822 226.788 62.68 226.368 63.0991C225.948 63.5182 225.449 63.8505 224.901 64.077C224.352 64.3035 223.764 64.4197 223.17 64.4189V64.4189Z" fill="#CCCCCC"/>
<path d="M267.398 64.6562H244.571C243.372 64.6562 242.223 64.1808 241.376 63.3344C240.529 62.4881 240.053 61.3402 240.053 60.1433C240.053 58.9464 240.529 57.7985 241.376 56.9522C242.223 56.1058 243.372 55.6304 244.571 55.6304H267.398C268.596 55.6304 269.745 56.1058 270.593 56.9522C271.44 57.7985 271.916 58.9464 271.916 60.1433C271.916 61.3402 271.44 62.4881 270.593 63.3344C269.745 64.1808 268.596 64.6562 267.398 64.6562Z" fill="#CCCCCC"/>
<path d="M165.626 98.8594H142.798C141.601 98.8579 140.454 98.3818 139.607 97.5356C138.761 96.6894 138.286 95.5424 138.286 94.3464C138.286 93.1505 138.761 92.0034 139.607 91.1573C140.454 90.3111 141.601 89.835 142.798 89.8335H165.626C166.22 89.8328 166.808 89.949 167.357 90.1754C167.905 90.4019 168.404 90.7342 168.824 91.1533C169.244 91.5725 169.578 92.0702 169.805 92.6181C170.032 93.166 170.149 93.7533 170.149 94.3464C170.149 94.9395 170.032 95.5268 169.805 96.0747C169.578 96.6226 169.244 97.1204 168.824 97.5395C168.404 97.9587 167.905 98.291 167.357 98.5174C166.808 98.7439 166.22 98.8601 165.626 98.8594Z" fill="#CCCCCC"/>
<path d="M223.17 241.9H142.799C141.6 241.9 140.451 241.424 139.604 240.578C138.757 239.732 138.281 238.584 138.281 237.387C138.281 236.19 138.757 235.042 139.604 234.196C140.451 233.349 141.6 232.874 142.799 232.874H223.17C223.763 232.874 224.351 232.991 224.899 233.218C225.447 233.444 225.945 233.777 226.365 234.196C226.784 234.615 227.117 235.112 227.344 235.66C227.571 236.207 227.688 236.794 227.688 237.387C227.688 237.98 227.571 238.566 227.344 239.114C227.117 239.662 226.784 240.159 226.365 240.578C225.945 240.997 225.447 241.33 224.899 241.556C224.351 241.783 223.763 241.9 223.17 241.9V241.9Z" fill="#CCCCCC"/>
<path d="M323.04 241.9H242.668C241.47 241.9 240.321 241.424 239.474 240.578C238.626 239.732 238.15 238.584 238.15 237.387C238.15 236.19 238.626 235.042 239.474 234.196C240.321 233.349 241.47 232.874 242.668 232.874H323.04C323.633 232.874 324.221 232.991 324.769 233.218C325.317 233.444 325.815 233.777 326.234 234.196C326.654 234.615 326.987 235.112 327.214 235.66C327.441 236.207 327.558 236.794 327.558 237.387C327.558 237.98 327.441 238.566 327.214 239.114C326.987 239.662 326.654 240.159 326.234 240.578C325.815 240.997 325.317 241.33 324.769 241.556C324.221 241.783 323.633 241.9 323.04 241.9V241.9Z" fill="#CCCCCC"/>
<path d="M323.04 259.001H183.222C182.024 259.001 180.875 258.526 180.027 257.68C179.18 256.833 178.704 255.685 178.704 254.488C178.704 253.292 179.18 252.144 180.027 251.297C180.875 250.451 182.024 249.976 183.222 249.976H323.04C323.634 249.975 324.222 250.091 324.77 250.318C325.319 250.544 325.818 250.876 326.238 251.295C326.658 251.715 326.991 252.212 327.219 252.76C327.446 253.308 327.563 253.895 327.563 254.488C327.563 255.082 327.446 255.669 327.219 256.217C326.991 256.765 326.658 257.262 326.238 257.682C325.818 258.101 325.319 258.433 324.77 258.66C324.222 258.886 323.634 259.002 323.04 259.001Z" fill="#CCCCCC"/>
<path d="M223.17 224.561H142.799C141.6 224.561 140.451 224.085 139.604 223.239C138.757 222.392 138.281 221.245 138.281 220.048C138.281 218.851 138.757 217.703 139.604 216.856C140.451 216.01 141.6 215.535 142.799 215.535H223.17C224.368 215.535 225.517 216.01 226.365 216.856C227.212 217.703 227.688 218.851 227.688 220.048C227.688 221.245 227.212 222.392 226.365 223.239C225.517 224.085 224.368 224.561 223.17 224.561Z" fill="#CCCCCC"/>
<path d="M267.398 224.798H244.571C243.372 224.798 242.223 224.323 241.376 223.477C240.529 222.63 240.053 221.482 240.053 220.285C240.053 219.089 240.529 217.941 241.376 217.094C242.223 216.248 243.372 215.772 244.571 215.772H267.398C268.596 215.772 269.745 216.248 270.593 217.094C271.44 217.941 271.916 219.089 271.916 220.285C271.916 221.482 271.44 222.63 270.593 223.477C269.745 224.323 268.596 224.798 267.398 224.798V224.798Z" fill="#CCCCCC"/>
<path d="M165.626 259.001H142.799C141.6 259.001 140.451 258.526 139.604 257.68C138.757 256.833 138.281 255.685 138.281 254.488C138.281 253.292 138.757 252.144 139.604 251.297C140.451 250.451 141.6 249.976 142.799 249.976H165.626C166.22 249.975 166.808 250.091 167.357 250.318C167.905 250.544 168.404 250.876 168.824 251.295C169.244 251.715 169.578 252.212 169.805 252.76C170.033 253.308 170.15 253.895 170.15 254.488C170.15 255.082 170.033 255.669 169.805 256.217C169.578 256.765 169.244 257.262 168.824 257.682C168.404 258.101 167.905 258.433 167.357 258.66C166.808 258.886 166.22 259.002 165.626 259.001Z" fill="#CCCCCC"/>
<path d="M202.18 193.45C200.474 193.454 198.836 192.784 197.622 191.587L167.41 161.786C166.817 161.201 166.346 160.504 166.025 159.736C165.704 158.968 165.538 158.143 165.538 157.311C165.538 156.478 165.704 155.654 166.025 154.885C166.346 154.117 166.817 153.42 167.41 152.835L197.5 123.154C198.754 121.924 200.443 121.237 202.2 121.242C203.958 121.248 205.642 121.945 206.888 123.184C208.135 124.432 208.835 126.124 208.835 127.887C208.835 129.651 208.135 131.342 206.888 132.591L184.529 154.926C183.832 155.623 183.441 156.568 183.441 157.554C183.441 158.539 183.832 159.484 184.529 160.181L206.767 182.395C207.675 183.3 208.294 184.455 208.544 185.711C208.795 186.968 208.667 188.271 208.175 189.455C207.684 190.639 206.852 191.651 205.785 192.362C204.717 193.073 203.463 193.452 202.18 193.45V193.45Z" fill="#865685"/>
<path d="M250.32 193.45C249.037 193.452 247.783 193.073 246.715 192.362C245.648 191.651 244.816 190.639 244.325 189.455C243.833 188.271 243.705 186.968 243.956 185.711C244.207 184.455 244.825 183.3 245.733 182.395L267.971 160.181C268.668 159.484 269.059 158.539 269.059 157.554C269.059 156.568 268.668 155.623 267.971 154.926L245.612 132.591C244.994 131.973 244.503 131.24 244.168 130.433C243.834 129.626 243.662 128.761 243.662 127.887C243.662 127.014 243.834 126.149 244.169 125.342C244.503 124.535 244.994 123.801 245.612 123.184V123.184C246.858 121.945 248.542 121.248 250.3 121.242C252.057 121.237 253.746 121.924 255 123.154L285.09 152.835C285.683 153.42 286.154 154.117 286.475 154.885C286.796 155.654 286.962 156.478 286.962 157.311C286.962 158.143 286.796 158.968 286.475 159.736C286.154 160.504 285.683 161.201 285.09 161.786L254.878 191.587C253.664 192.784 252.026 193.454 250.32 193.45Z" fill="#865685"/>
</g>
<defs>
<clipPath id="clip0_334_10474">
<rect width="464" height="298" fill="white"/>
</clipPath>
</defs>
</svg>
