<svg width="235" height="240" viewBox="0 0 235 240" fill="none" xmlns="http://www.w3.org/2000/svg">
<rect x="34.8711" y="16.2017" width="36" height="249.944" rx="18" transform="rotate(-26.7465 34.8711 16.2017)" fill="#F15527" fill-opacity="0.2"/>
<rect x="156.871" y="36.2017" width="36" height="100.235" rx="18" transform="rotate(-26.7465 156.871 36.2017)" fill="#F15527" fill-opacity="0.2"/>
<rect x="0.871094" y="138.037" width="26.745" height="74.4663" rx="13.3725" transform="rotate(-26.7465 0.871094 138.037)" fill="#F15527" fill-opacity="0.2"/>
<g clip-path="url(#clip0_2865_33046)">
<path d="M117.5 199C161.225 199 197 163.225 197 119.5C197 75.775 161.225 40 117.5 40C73.775 40 38 75.775 38 119.5C38 163.225 73.775 199 117.5 199ZM119.885 82.0555C121.475 80.6245 123.383 79.75 125.45 79.75C127.596 79.75 129.425 80.6245 131.094 82.0555C132.605 83.725 133.4 85.633 133.4 87.7C133.4 89.8465 132.605 91.675 131.094 93.3445C129.425 94.855 127.596 95.65 125.45 95.65C123.383 95.65 121.475 94.855 119.885 93.3445C118.375 91.675 117.5 89.8465 117.5 87.7C117.5 85.633 118.375 83.725 119.885 82.0555ZM100.01 119.261C100.01 119.261 117.261 105.588 123.542 105.031C129.425 104.554 128.232 111.311 127.676 114.809L127.597 115.286C126.484 119.5 125.132 124.588 123.78 129.438C120.759 140.488 117.818 151.3 118.534 153.287C119.328 155.991 124.257 152.572 127.835 150.187C128.312 149.869 128.709 149.551 129.107 149.312C129.107 149.312 129.743 148.676 130.379 149.551C130.538 149.789 130.697 150.028 130.856 150.187C131.572 151.3 131.969 151.697 131.015 152.333L130.697 152.492C128.948 153.685 121.475 158.932 118.454 160.84C115.194 162.987 102.713 170.142 104.621 156.229C106.291 146.451 108.517 138.023 110.266 131.425C113.525 119.5 114.956 114.094 107.642 118.785C104.701 120.534 102.951 121.646 101.918 122.362C101.043 122.998 100.964 122.998 100.408 121.965L100.169 121.487L99.7715 120.852C99.215 120.057 99.215 119.977 100.01 119.261Z" fill="#0F2139"/>
<path d="M119.885 82.0555C121.475 80.6245 123.383 79.75 125.45 79.75C127.596 79.75 129.425 80.6245 131.094 82.0555C132.605 83.725 133.4 85.633 133.4 87.7C133.4 89.8465 132.605 91.675 131.094 93.3445C129.425 94.855 127.596 95.65 125.45 95.65C123.383 95.65 121.475 94.855 119.885 93.3445C118.375 91.675 117.5 89.8465 117.5 87.7C117.5 85.633 118.375 83.725 119.885 82.0555Z" fill="white"/>
<path d="M100.01 119.261C100.01 119.261 117.261 105.588 123.542 105.031C129.425 104.554 128.232 111.311 127.676 114.809L127.597 115.286C126.484 119.5 125.132 124.588 123.78 129.438C120.759 140.488 117.818 151.3 118.534 153.287C119.328 155.991 124.257 152.572 127.835 150.187C128.312 149.869 128.709 149.551 129.107 149.312C129.107 149.312 129.743 148.676 130.379 149.551C130.538 149.789 130.697 150.028 130.856 150.187C131.572 151.3 131.969 151.697 131.015 152.333L130.697 152.492C128.948 153.685 121.475 158.932 118.454 160.84C115.194 162.987 102.713 170.142 104.621 156.229C106.291 146.451 108.517 138.023 110.266 131.425C113.525 119.5 114.956 114.094 107.642 118.785C104.701 120.534 102.951 121.646 101.918 122.362C101.043 122.998 100.964 122.998 100.408 121.965L100.169 121.487L99.7715 120.852C99.215 120.057 99.215 119.977 100.01 119.261Z" fill="white"/>
</g>
<defs>
<clipPath id="clip0_2865_33046">
<rect width="159" height="159" fill="white" transform="translate(38 40)"/>
</clipPath>
</defs>
</svg>
