<svg width="66" height="66" viewBox="0 0 66 66" fill="none" xmlns="http://www.w3.org/2000/svg">
<g filter="url(#filter0_d_729_15832)">
<path d="M10 28C10 15.2975 20.2975 5 33 5C45.7025 5 56 15.2975 56 28C56 40.7025 45.7025 51 33 51C20.2975 51 10 40.7025 10 28Z" fill="black" fill-opacity="0.38" shape-rendering="crispEdges"/>
<path d="M37.1064 33.0342H28.8447L27.1162 38H23.2637L31.3203 16.6719H34.6455L42.7168 38H38.8496L37.1064 33.0342ZM29.8848 30.0459H36.0664L32.9756 21.1982L29.8848 30.0459Z" fill="white"/>
<path d="M33 50C20.8497 50 11 40.1503 11 28H9C9 41.2548 19.7452 52 33 52V50ZM55 28C55 40.1503 45.1503 50 33 50V52C46.2548 52 57 41.2548 57 28H55ZM33 6C45.1503 6 55 15.8497 55 28H57C57 14.7452 46.2548 4 33 4V6ZM33 4C19.7452 4 9 14.7452 9 28H11C11 15.8497 20.8497 6 33 6V4Z" fill="white"/>
</g>
<defs>
<filter id="filter0_d_729_15832" x="0" y="0" width="66" height="66" filterUnits="userSpaceOnUse" color-interpolation-filters="sRGB">
<feFlood flood-opacity="0" result="BackgroundImageFix"/>
<feColorMatrix in="SourceAlpha" type="matrix" values="0 0 0 0 0 0 0 0 0 0 0 0 0 0 0 0 0 0 127 0" result="hardAlpha"/>
<feOffset dy="5"/>
<feGaussianBlur stdDeviation="5"/>
<feComposite in2="hardAlpha" operator="out"/>
<feColorMatrix type="matrix" values="0 0 0 0 0.5125 0 0 0 0 0.5125 0 0 0 0 0.5125 0 0 0 0.08 0"/>
<feBlend mode="normal" in2="BackgroundImageFix" result="effect1_dropShadow_729_15832"/>
<feBlend mode="normal" in="SourceGraphic" in2="effect1_dropShadow_729_15832" result="shape"/>
</filter>
</defs>
</svg>
