<svg width="511" height="152" viewBox="0 0 511 152" fill="none" xmlns="http://www.w3.org/2000/svg">
<path d="M78.1696 124.2C51.521 124.2 22.8867 119.2 22.8867 108.2C22.8867 97.2002 51.521 92.2002 78.1696 92.2002C104.818 92.2002 133.452 97.2002 133.452 108.2C133.557 119.2 104.818 124.2 78.1696 124.2ZM78.1696 98.5002C64.584 98.5002 51.8345 99.8002 42.2201 102.2C31.7696 104.8 29.4705 107.6 29.4705 108.2C29.4705 108.8 31.7696 111.6 42.2201 114.2C51.73 116.6 64.584 117.9 78.1696 117.9C91.7552 117.9 104.505 116.6 114.119 114.2C124.57 111.6 126.869 108.8 126.869 108.2C126.869 107.6 124.57 104.8 114.119 102.2C104.609 99.8002 91.7552 98.5002 78.1696 98.5002Z" fill="white"/>
<path d="M78.1696 59.5C51.521 59.5 22.8867 54.5 22.8867 43.5C22.8867 32.5 51.521 27.5 78.1696 27.5C104.818 27.5 133.452 32.5 133.452 43.5C133.557 54.5 104.818 59.5 78.1696 59.5ZM78.1696 33.8C64.584 33.8 51.8345 35.1 42.2201 37.5C31.7696 40.1 29.4705 42.9 29.4705 43.5C29.4705 44.1 31.7696 46.9 42.2201 49.5C51.73 51.9 64.584 53.2 78.1696 53.2C91.7552 53.2 104.505 51.9 114.119 49.5C124.57 46.9 126.869 44.1 126.869 43.5C126.869 42.9 124.57 40.1 114.119 37.5C104.609 35.1 91.7552 33.8 78.1696 33.8Z" fill="white"/>
<path d="M124.151 71.2998C86.4253 113.6 63.0163 119.4 57.7911 119.4C57.4776 119.4 29.3658 113.5 29.2613 113.5L28.3208 108.2C50.7893 105.9 92.0686 98.6998 124.151 71.2998Z" fill="white"/>
<path d="M86.1118 87.3C93.9497 83.8 113.387 66.5 111.193 54.5L133.452 43.5C133.557 72 92.6956 83.9 86.1118 87.3Z" fill="white"/>
<path d="M195.6 101.4H241.4V97.6002C241.4 93.4002 241.9 90.7002 242.8 89.5002C243.8 88.3002 245.5 87.6002 248 87.6002C250.1 87.6002 251.7 88.1002 252.8 89.1002C253.8 90.1002 254.4 91.5002 254.4 93.5002V105.6C254.4 107.8 253.6 109.4 252 110.3C250.4 111.3 247.6 111.7 243.5 111.7H187.8C184.4 111.7 181.8 111.1 180 110C178.2 108.9 177.3 107.2 177.3 105.1C177.3 103.8 177.7 102.5 178.4 101.4C179.2 100.2 181 98.5002 183.8 96.3002L236.4 54.5002H192.5V58.2002C192.5 62.5002 192 65.2002 191.1 66.4002C190.1 67.6002 188.4 68.2002 185.9 68.2002C183.7 68.2002 182 67.7002 180.9 66.7002C179.8 65.7002 179.2 64.3002 179.2 62.3002V50.0002C179.2 48.0002 180.2 46.5002 182.3 45.6002C184.4 44.7002 187.6 44.2002 192 44.2002H241.2C245.5 44.2002 248.7 44.8002 250.9 46.1002C253.1 47.3002 254.2 49.2002 254.2 51.6002C254.2 53.0002 253.5 54.6002 252.1 56.4002C250.7 58.2002 248.7 60.1002 245.9 62.2002L195.6 101.4Z" fill="white"/>
<path d="M376.9 77.9996C376.9 88.3996 372.4 96.9996 363.5 103.6C354.5 110.2 342.9 113.5 328.6 113.5C314.4 113.5 302.8 110.2 293.8 103.6C284.8 96.9996 280.4 88.3996 280.4 77.9996C280.4 67.5996 284.9 59.0996 293.8 52.4996C302.8 45.8996 314.3 42.5996 328.6 42.5996C342.8 42.5996 354.4 45.8996 363.4 52.4996C372.4 59.0996 376.9 67.5996 376.9 77.9996ZM328.6 103.2C338 103.2 345.8 100.8 351.8 96.0996C357.8 91.3996 360.9 85.2996 360.9 77.9996C360.9 70.6996 357.9 64.5996 351.8 59.7996C345.7 54.9996 338 52.5996 328.6 52.5996C319.2 52.5996 311.5 54.9996 305.5 59.7996C299.5 64.5996 296.4 70.6996 296.4 77.9996C296.4 85.3996 299.4 91.4996 305.4 96.1996C311.5 100.8 319.2 103.2 328.6 103.2Z" fill="white"/>
<path d="M466.8 48.2998C469.8 48.2998 472 48.6998 473.4 49.4998C474.8 50.2998 475.5 51.5998 475.5 53.3998C475.5 55.0998 474.9 56.3998 473.6 57.1998C472.3 58.0998 470.4 58.4998 467.8 58.4998H430.5V82.9998C430.5 90.9998 431.8 96.2998 434.4 98.7998C437 101.3 441.5 102.6 447.8 102.6C453.4 102.6 460.1 101.3 467.9 98.6998C475.7 96.0998 480.5 94.7998 482.3 94.7998C484 94.7998 485.5 95.2998 486.7 96.2998C487.9 97.2998 488.5 98.4998 488.5 99.8998C488.5 101.5 487.7 102.9 486.2 104.1C484.7 105.3 482.1 106.5 478.5 107.6C472.5 109.5 467.1 110.9 462.3 111.8C457.5 112.7 453 113.1 448.7 113.1C441.5 113.1 435.5 112.2 430.6 110.4C425.7 108.6 422.1 105.9 419.7 102.3C418.5 100.6 417.6 98.5998 417.1 96.1998C416.6 93.8998 416.3 90.2998 416.3 85.3998V82.9998V58.5998H400.7C398.1 58.5998 396.3 58.1998 395.1 57.3998C393.9 56.5998 393.4 55.2998 393.4 53.4998C393.4 51.4998 394.2 50.0998 395.8 49.3998C397.4 48.6998 400.8 48.2998 406 48.2998H416.4V33.2998V29.3998C416.4 27.2998 417 25.7998 418.1 24.7998C419.2 23.7998 421 23.2998 423.4 23.2998C426.1 23.2998 428 23.8998 429 25.0998C430 26.2998 430.6 29.0998 430.6 33.3998V48.1998H466.8V48.2998Z" fill="white"/>
</svg>
