<svg width="60" height="60" viewBox="0 0 60 60" fill="none" xmlns="http://www.w3.org/2000/svg">
<path d="M29.6046 49.1571C19.5123 49.1571 8.66797 47.1782 8.66797 42.8246C8.66797 38.4711 19.5123 36.4922 29.6046 36.4922C39.697 36.4922 50.5413 38.4711 50.5413 42.8246C50.5809 47.1782 39.697 49.1571 29.6046 49.1571ZM29.6046 38.9856C24.4595 38.9856 19.631 39.5001 15.9899 40.45C12.0321 41.479 11.1614 42.5872 11.1614 42.8246C11.1614 43.0621 12.0321 44.1703 15.9899 45.1993C19.5915 46.1492 24.4595 46.6637 29.6046 46.6637C34.7498 46.6637 39.5783 46.1492 43.2194 45.1993C47.1772 44.1703 48.0479 43.0621 48.0479 42.8246C48.0479 42.5872 47.1772 41.479 43.2194 40.45C39.6178 39.5001 34.7498 38.9856 29.6046 38.9856Z" fill="white"/>
<path d="M29.6046 23.5477C19.5123 23.5477 8.66797 21.5688 8.66797 17.2153C8.66797 12.8617 19.5123 10.8828 29.6046 10.8828C39.697 10.8828 50.5413 12.8617 50.5413 17.2153C50.5809 21.5688 39.697 23.5477 29.6046 23.5477ZM29.6046 13.3762C24.4595 13.3762 19.631 13.8907 15.9899 14.8406C12.0321 15.8696 11.1614 16.9778 11.1614 17.2153C11.1614 17.4527 12.0321 18.5609 15.9899 19.5899C19.5915 20.5398 24.4595 21.0543 29.6046 21.0543C34.7498 21.0543 39.5783 20.5398 43.2194 19.5899C47.1772 18.5609 48.0479 17.4527 48.0479 17.2153C48.0479 16.9778 47.1772 15.8696 43.2194 14.8406C39.6178 13.8907 34.7498 13.3762 29.6046 13.3762Z" fill="white"/>
<path d="M47.0194 28.2188C32.7318 44.9602 23.8664 47.2557 21.8875 47.2557C21.7688 47.2557 11.1223 44.9206 11.0828 44.9206L10.7266 42.823C19.2358 41.9127 34.869 39.0631 47.0194 28.2188Z" fill="white"/>
<path d="M32.6133 34.5499C35.5816 33.1647 42.9431 26.3177 42.112 21.5684L50.542 17.2148C50.5816 28.4945 35.1067 33.2043 32.6133 34.5499Z" fill="white"/>
</svg>
