<svg width="1000" height="1000" viewBox="0 0 1000 1000" fill="none" xmlns="http://www.w3.org/2000/svg">
<path d="M493.406 819.261C325.2 819.261 144.461 786.28 144.461 713.721C144.461 641.161 325.2 608.18 493.406 608.18C661.611 608.18 842.35 641.161 842.35 713.721C843.01 786.28 661.611 819.261 493.406 819.261ZM493.406 649.736C407.654 649.736 327.179 658.312 266.493 674.143C200.53 691.293 186.018 709.763 186.018 713.721C186.018 717.678 200.53 736.148 266.493 753.298C326.519 769.13 407.654 777.705 493.406 777.705C579.158 777.705 659.632 769.13 720.318 753.298C786.281 736.148 800.793 717.678 800.793 713.721C800.793 709.763 786.281 691.293 720.318 674.143C660.292 658.312 579.158 649.736 493.406 649.736Z" fill="#0F2139"/>
<path d="M493.406 392.48C325.2 392.48 144.461 359.499 144.461 286.939C144.461 214.38 325.2 181.398 493.406 181.398C661.611 181.398 842.35 214.38 842.35 286.939C843.01 359.499 661.611 392.48 493.406 392.48ZM493.406 222.955C407.654 222.955 327.179 231.53 266.493 247.361C200.53 264.512 186.018 282.982 186.018 286.939C186.018 290.897 200.53 309.367 266.493 326.517C326.519 342.348 407.654 350.924 493.406 350.924C579.158 350.924 659.632 342.348 720.318 326.517C786.281 309.367 800.793 290.897 800.793 286.939C800.793 282.982 786.281 264.512 720.318 247.361C660.292 231.53 579.158 222.955 493.406 222.955Z" fill="#0F2139"/>
<path d="M783.643 470.316C545.516 749.34 397.759 787.599 364.778 787.599C362.799 787.599 185.358 748.68 184.698 748.68L178.762 713.72C320.582 698.549 581.136 651.055 783.643 470.316Z" fill="#0F2139"/>
<path d="M543.535 575.858C593.007 552.771 715.699 438.654 701.846 359.499L842.348 286.939C843.007 474.934 585.092 553.43 543.535 575.858Z" fill="#0F2139"/>
</svg>
