<svg width="128" height="30" viewBox="0 0 128 30" fill="none" xmlns="http://www.w3.org/2000/svg">
<mask id="path-1-outside-1_2626_27477" maskUnits="userSpaceOnUse" x="4.73975" y="1.91992" width="29" height="26" fill="black">
<rect fill="white" x="4.73975" y="1.91992" width="29" height="26"/>
<path fill-rule="evenodd" clip-rule="evenodd" d="M5.73975 6.94585C5.73975 9.71368 12.9207 10.9718 19.6038 10.9718C22.4889 10.9718 25.4717 10.7373 27.9281 10.2481C27.8845 13.1252 23.7352 16.8795 21.7868 17.8743C21.714 17.9074 21.6501 17.938 21.5955 17.9663C21.6565 17.9389 21.7203 17.9083 21.7868 17.8743C22.0193 17.7687 22.3409 17.6384 22.7294 17.481C25.8867 16.2018 33.4584 13.1341 33.4677 6.98415C33.4679 6.97141 33.468 6.95865 33.4678 6.94585C33.4678 4.17803 26.2868 2.91992 19.6038 2.91992C12.9207 2.91992 5.73975 4.17803 5.73975 6.94585ZM10.5882 5.43613C12.9994 4.83224 16.1967 4.50513 19.6038 4.50513C23.0108 4.50513 26.2344 4.83224 28.6194 5.43613C31.2402 6.09034 31.8167 6.79488 31.8167 6.94585C31.8167 7.09682 31.2402 7.80136 28.6194 8.45558C26.2082 9.05947 23.0108 9.38657 19.6038 9.38657C16.1967 9.38657 12.9732 9.05947 10.5882 8.45558C7.96743 7.80136 7.39085 7.09682 7.39085 6.94585C7.39085 6.79488 7.96743 6.09034 10.5882 5.43613ZM5.73975 23.2251C5.73975 25.993 12.9207 27.2511 19.6038 27.2511C26.2868 27.2511 33.494 25.993 33.4678 23.2251C33.4678 21.296 29.9795 20.1003 25.6027 19.5528C27.2788 18.0469 29.1261 16.2008 31.1353 13.9404C28.4536 16.2384 25.5156 17.9717 22.5815 19.2829C21.5947 19.2268 20.5938 19.1992 19.6038 19.1992C12.9207 19.1992 5.73975 20.4573 5.73975 23.2251ZM7.39665 23.1943C10.3029 22.8823 14.3655 22.2435 18.6984 20.7922C15.6331 20.8449 12.7845 21.1653 10.5882 21.7154C8.11561 22.3326 7.46259 22.9947 7.39665 23.1943ZM28.6194 21.7154C27.2881 21.3783 25.6954 21.1275 23.9555 20.9716C20.6814 23.6675 18.1766 24.9732 16.5271 25.5743C17.5225 25.6348 18.5545 25.6659 19.6038 25.6659C23.0108 25.6659 26.2082 25.3388 28.6194 24.7349C31.2402 24.0807 31.8167 23.3761 31.8167 23.2251C31.8167 23.0742 31.2402 22.3696 28.6194 21.7154Z"/>
</mask>
<path fill-rule="evenodd" clip-rule="evenodd" d="M5.73975 6.94585C5.73975 9.71368 12.9207 10.9718 19.6038 10.9718C22.4889 10.9718 25.4717 10.7373 27.9281 10.2481C27.8845 13.1252 23.7352 16.8795 21.7868 17.8743C21.714 17.9074 21.6501 17.938 21.5955 17.9663C21.6565 17.9389 21.7203 17.9083 21.7868 17.8743C22.0193 17.7687 22.3409 17.6384 22.7294 17.481C25.8867 16.2018 33.4584 13.1341 33.4677 6.98415C33.4679 6.97141 33.468 6.95865 33.4678 6.94585C33.4678 4.17803 26.2868 2.91992 19.6038 2.91992C12.9207 2.91992 5.73975 4.17803 5.73975 6.94585ZM10.5882 5.43613C12.9994 4.83224 16.1967 4.50513 19.6038 4.50513C23.0108 4.50513 26.2344 4.83224 28.6194 5.43613C31.2402 6.09034 31.8167 6.79488 31.8167 6.94585C31.8167 7.09682 31.2402 7.80136 28.6194 8.45558C26.2082 9.05947 23.0108 9.38657 19.6038 9.38657C16.1967 9.38657 12.9732 9.05947 10.5882 8.45558C7.96743 7.80136 7.39085 7.09682 7.39085 6.94585C7.39085 6.79488 7.96743 6.09034 10.5882 5.43613ZM5.73975 23.2251C5.73975 25.993 12.9207 27.2511 19.6038 27.2511C26.2868 27.2511 33.494 25.993 33.4678 23.2251C33.4678 21.296 29.9795 20.1003 25.6027 19.5528C27.2788 18.0469 29.1261 16.2008 31.1353 13.9404C28.4536 16.2384 25.5156 17.9717 22.5815 19.2829C21.5947 19.2268 20.5938 19.1992 19.6038 19.1992C12.9207 19.1992 5.73975 20.4573 5.73975 23.2251ZM7.39665 23.1943C10.3029 22.8823 14.3655 22.2435 18.6984 20.7922C15.6331 20.8449 12.7845 21.1653 10.5882 21.7154C8.11561 22.3326 7.46259 22.9947 7.39665 23.1943ZM28.6194 21.7154C27.2881 21.3783 25.6954 21.1275 23.9555 20.9716C20.6814 23.6675 18.1766 24.9732 16.5271 25.5743C17.5225 25.6348 18.5545 25.6659 19.6038 25.6659C23.0108 25.6659 26.2082 25.3388 28.6194 24.7349C31.2402 24.0807 31.8167 23.3761 31.8167 23.2251C31.8167 23.0742 31.2402 22.3696 28.6194 21.7154Z" fill="#F6F7F9"/>
<path d="M27.9281 10.2481L28.128 10.2511L28.1318 10.0036L27.889 10.052L27.9281 10.2481ZM21.5955 17.9663L21.5034 17.7887L21.6772 18.1488L21.5955 17.9663ZM22.7294 17.481L22.6542 17.2956L22.6542 17.2956L22.7294 17.481ZM33.4677 6.98415L33.2677 6.98121L33.2677 6.98384L33.4677 6.98415ZM33.4678 6.94585L33.2678 6.94585L33.2678 6.94776L33.4678 6.94585ZM10.5882 5.43613L10.6367 5.63017L10.6368 5.63014L10.5882 5.43613ZM28.6194 5.43613L28.5703 5.63001L28.5709 5.63017L28.6194 5.43613ZM28.6194 8.45558L28.5709 8.26153L28.5708 8.26157L28.6194 8.45558ZM10.5882 8.45558L10.6373 8.26169L10.6367 8.26153L10.5882 8.45558ZM33.4678 23.2251H33.2678L33.2678 23.227L33.4678 23.2251ZM25.6027 19.5528L25.4691 19.404L25.1431 19.6969L25.5779 19.7513L25.6027 19.5528ZM31.1353 13.9404L31.2848 14.0733L31.0052 13.7886L31.1353 13.9404ZM22.5815 19.2829L22.5702 19.4825L22.6187 19.4853L22.6631 19.4655L22.5815 19.2829ZM18.6984 20.7922L18.7619 20.9818L18.6949 20.5922L18.6984 20.7922ZM7.39665 23.1943L7.20674 23.1316L7.10941 23.4263L7.418 23.3932L7.39665 23.1943ZM10.5882 21.7154L10.6367 21.9095L10.6368 21.9094L10.5882 21.7154ZM23.9555 20.9716L23.9733 20.7724L23.8916 20.7651L23.8283 20.8172L23.9555 20.9716ZM28.6194 21.7154L28.5703 21.9093L28.5709 21.9095L28.6194 21.7154ZM16.5271 25.5743L16.4587 25.3863L16.515 25.7739L16.5271 25.5743ZM28.6194 24.7349L28.5709 24.5408L28.5708 24.5409L28.6194 24.7349ZM19.6038 10.7718C16.2718 10.7718 12.8235 10.4579 10.2143 9.80277C8.9082 9.47483 7.82624 9.06472 7.07546 8.57506C6.32246 8.08396 5.93975 7.53934 5.93975 6.94585H5.53975C5.53975 7.73628 6.05465 8.38685 6.85694 8.9101C7.66144 9.43479 8.79242 9.85817 10.1169 10.1907C12.769 10.8566 16.2527 11.1718 19.6038 11.1718V10.7718ZM27.889 10.052C25.4489 10.5379 22.4797 10.7718 19.6038 10.7718V11.1718C22.4981 11.1718 25.4946 10.9367 27.9671 10.4443L27.889 10.052ZM21.8777 18.0525C22.8795 17.541 24.4226 16.3362 25.7201 14.9012C26.3703 14.1822 26.9642 13.3995 27.3993 12.6101C27.8333 11.8226 28.1165 11.0155 28.128 10.2511L27.7281 10.2451C27.7179 10.9193 27.466 11.6604 27.0489 12.4171C26.6329 13.1719 26.0595 13.9294 25.4234 14.633C24.1483 16.0431 22.6425 17.2129 21.6958 17.6962L21.8777 18.0525ZM21.704 17.6923C21.6294 17.7262 21.5621 17.7583 21.5034 17.7887L21.6875 18.1439C21.738 18.1177 21.7987 18.0886 21.8695 18.0564L21.704 17.6923ZM21.6772 18.1488C21.7417 18.1199 21.8086 18.0877 21.8777 18.0525L21.6958 17.6962C21.6321 17.7288 21.5713 17.758 21.5137 17.7838L21.6772 18.1488ZM22.6542 17.2956C22.2675 17.4524 21.9412 17.5845 21.704 17.6923L21.8695 18.0564C22.0973 17.9529 22.4143 17.8244 22.8045 17.6664L22.6542 17.2956ZM33.2677 6.98384C33.2632 9.9668 31.4266 12.2192 29.16 13.8984C26.8943 15.5768 24.2346 16.6553 22.6542 17.2956L22.8045 17.6664C24.3814 17.0275 27.0862 15.9325 29.3981 14.2198C31.709 12.5078 33.6629 10.1514 33.6677 6.98445L33.2677 6.98384ZM33.2678 6.94776C33.268 6.95893 33.2679 6.97008 33.2678 6.98121L33.6677 6.98708C33.6679 6.97275 33.668 6.95837 33.6678 6.94394L33.2678 6.94776ZM19.6038 3.11992C22.9358 3.11992 26.3841 3.43381 28.9933 4.08893C30.2994 4.41688 31.3813 4.82699 32.1321 5.31664C32.8851 5.80774 33.2678 6.35236 33.2678 6.94585H33.6678C33.6678 6.15543 33.1529 5.50485 32.3506 4.9816C31.5461 4.45691 30.4152 4.03353 29.0907 3.70097C26.4386 3.03508 22.9549 2.71992 19.6038 2.71992V3.11992ZM5.93975 6.94585C5.93975 6.35236 6.32246 5.80774 7.07546 5.31664C7.82624 4.82699 8.9082 4.41688 10.2143 4.08893C12.8235 3.43381 16.2718 3.11992 19.6038 3.11992V2.71992C16.2527 2.71992 12.769 3.03508 10.1169 3.70097C8.79242 4.03353 7.66144 4.45691 6.85694 4.9816C6.05465 5.50485 5.53975 6.15543 5.53975 6.94585H5.93975ZM19.6038 4.30513C16.1862 4.30513 12.9715 4.63305 10.5396 5.24212L10.6368 5.63014C13.0273 5.03143 16.2073 4.70513 19.6038 4.70513V4.30513ZM28.6684 5.24225C26.2623 4.63299 23.0211 4.30513 19.6038 4.30513V4.70513C23.0006 4.70513 26.2065 5.03148 28.5703 5.63001L28.6684 5.24225ZM32.0167 6.94585C32.0167 6.87318 31.9861 6.80802 31.9586 6.76197C31.9276 6.71016 31.8842 6.65541 31.8289 6.59869C31.7182 6.485 31.5487 6.35189 31.3021 6.2072C30.8086 5.91766 29.9897 5.57205 28.6678 5.24208L28.5709 5.63017C29.8698 5.95442 30.6496 6.28818 31.0996 6.55221C31.3248 6.6843 31.4632 6.79652 31.5424 6.87784C31.5822 6.91862 31.6043 6.9488 31.6151 6.96697C31.6294 6.9909 31.6167 6.98079 31.6167 6.94585H32.0167ZM28.6678 8.64962C29.9897 8.31965 30.8086 7.97404 31.3021 7.6845C31.5487 7.53981 31.7182 7.4067 31.8289 7.29301C31.8842 7.2363 31.9276 7.18155 31.9586 7.12974C31.9861 7.08369 32.0167 7.01853 32.0167 6.94585H31.6167C31.6167 6.91092 31.6294 6.9008 31.6151 6.92473C31.6043 6.94291 31.5822 6.97308 31.5424 7.01387C31.4632 7.09518 31.3248 7.2074 31.0996 7.3395C30.6496 7.60352 29.8698 7.93729 28.5709 8.26153L28.6678 8.64962ZM19.6038 9.58657C23.0214 9.58657 26.2361 9.25866 28.6679 8.64958L28.5708 8.26157C26.1803 8.86028 23.0003 9.18657 19.6038 9.18657V9.58657ZM10.5391 8.64946C12.9452 9.25871 16.1865 9.58657 19.6038 9.58657V9.18657C16.207 9.18657 13.0011 8.86022 10.6373 8.26169L10.5391 8.64946ZM7.19085 6.94585C7.19085 7.01853 7.22152 7.08369 7.24901 7.12974C7.27993 7.18155 7.32338 7.2363 7.37865 7.29301C7.48942 7.4067 7.65893 7.53981 7.90553 7.6845C8.39902 7.97404 9.21792 8.31965 10.5398 8.64962L10.6367 8.26153C9.33774 7.93729 8.55795 7.60352 8.10795 7.3395C7.88281 7.2074 7.74437 7.09518 7.66514 7.01387C7.6254 6.97308 7.60333 6.94291 7.59248 6.92473C7.5782 6.9008 7.59085 6.91092 7.59085 6.94585H7.19085ZM10.5398 5.24208C9.21792 5.57205 8.39902 5.91766 7.90553 6.2072C7.65893 6.35189 7.48942 6.485 7.37865 6.59869C7.32338 6.65541 7.27993 6.71016 7.24901 6.76197C7.22152 6.80802 7.19085 6.87318 7.19085 6.94585H7.59085C7.59085 6.98079 7.5782 6.9909 7.59248 6.96697C7.60333 6.9488 7.6254 6.91862 7.66514 6.87784C7.74437 6.79652 7.88281 6.6843 8.10795 6.55221C8.55795 6.28818 9.33774 5.95442 10.6367 5.63017L10.5398 5.24208ZM19.6038 27.0511C16.2718 27.0511 12.8235 26.7372 10.2143 26.0821C8.9082 25.7541 7.82624 25.344 7.07546 24.8544C6.32246 24.3633 5.93975 23.8186 5.93975 23.2251H5.53975C5.53975 24.0156 6.05465 24.6662 6.85694 25.1894C7.66144 25.7141 8.79242 26.1375 10.1169 26.47C12.769 27.1359 16.2527 27.4511 19.6038 27.4511V27.0511ZM33.2678 23.227C33.2735 23.8196 32.8947 24.3635 32.1431 24.8544C31.3936 25.344 30.311 25.7541 29.0031 26.0821C26.3907 26.7372 22.9358 27.0511 19.6038 27.0511V27.4511C22.9548 27.4511 26.4451 27.1359 29.1004 26.47C30.4265 26.1375 31.5584 25.7141 32.3618 25.1893C33.163 24.666 33.6753 24.0147 33.6678 23.2233L33.2678 23.227ZM25.5779 19.7513C27.7586 20.0241 29.7036 20.4569 31.0978 21.0547C31.7951 21.3537 32.3428 21.6891 32.7136 22.0565C33.0818 22.4215 33.2678 22.8096 33.2678 23.2251H33.6678C33.6678 22.6761 33.4178 22.1913 32.9952 21.7725C32.5751 21.3561 31.9772 20.9966 31.2554 20.6871C29.8112 20.0678 27.8236 19.6291 25.6276 19.3543L25.5779 19.7513ZM30.9858 13.8076C28.9811 16.0628 27.1391 17.9036 25.4691 19.404L25.7364 19.7016C27.4185 18.1902 29.2711 16.3387 31.2848 14.0733L30.9858 13.8076ZM22.6631 19.4655C25.6116 18.1478 28.5666 16.4049 31.2654 14.0923L31.0052 13.7886C28.3405 16.0719 25.4196 17.7955 22.4999 19.1003L22.6631 19.4655ZM19.6038 19.3992C20.5901 19.3992 21.5872 19.4267 22.5702 19.4825L22.5929 19.0832C21.6021 19.0269 20.5974 18.9992 19.6038 18.9992V19.3992ZM5.93975 23.2251C5.93975 22.6317 6.32246 22.087 7.07546 21.5959C7.82624 21.1063 8.9082 20.6962 10.2143 20.3682C12.8235 19.7131 16.2718 19.3992 19.6038 19.3992V18.9992C16.2527 18.9992 12.769 19.3144 10.1169 19.9803C8.79242 20.3128 7.66144 20.7362 6.85694 21.2609C6.05465 21.7841 5.53975 22.4347 5.53975 23.2251H5.93975ZM18.6349 20.6025C14.3202 22.0477 10.2729 22.6844 7.3753 22.9955L7.418 23.3932C10.3329 23.0802 14.4108 22.4392 18.7619 20.9818L18.6349 20.6025ZM10.6368 21.9094C12.8139 21.3642 15.6465 21.0447 18.7018 20.9922L18.6949 20.5922C15.6198 20.6451 12.7551 20.9665 10.5396 21.5214L10.6368 21.9094ZM7.58656 23.2571C7.58556 23.2601 7.58962 23.2475 7.61094 23.2193C7.63111 23.1925 7.66292 23.1568 7.7104 23.1134C7.80542 23.0265 7.95697 22.9144 8.18724 22.7862C8.64783 22.5297 9.41141 22.2153 10.6367 21.9095L10.5398 21.5214C9.29244 21.8327 8.49319 22.158 7.99263 22.4367C7.74233 22.5761 7.56372 22.7055 7.44048 22.8182C7.32272 22.9259 7.23933 23.0329 7.20674 23.1316L7.58656 23.2571ZM23.9376 21.1708C25.6702 21.326 27.2519 21.5755 28.5703 21.9093L28.6684 21.5215C27.3242 21.1812 25.7207 20.9289 23.9733 20.7724L23.9376 21.1708ZM16.5956 25.7622C18.2706 25.1518 20.7948 23.8331 24.0826 21.126L23.8283 20.8172C20.5679 23.5018 18.0826 24.7945 16.4587 25.3863L16.5956 25.7622ZM19.6038 25.4659C18.5584 25.4659 17.5305 25.435 16.5393 25.3746L16.515 25.7739C17.5146 25.8347 18.5506 25.8659 19.6038 25.8659V25.4659ZM28.5708 24.5409C26.1803 25.1396 23.0003 25.4659 19.6038 25.4659V25.8659C23.0214 25.8659 26.2361 25.538 28.6679 24.9289L28.5708 24.5409ZM31.6167 23.2251C31.6167 23.1902 31.6294 23.1801 31.6151 23.204C31.6043 23.2222 31.5822 23.2524 31.5424 23.2932C31.4632 23.3745 31.3248 23.4867 31.0996 23.6188C30.6496 23.8828 29.8698 24.2166 28.5709 24.5408L28.6678 24.9289C29.9897 24.5989 30.8086 24.2533 31.3021 23.9638C31.5487 23.8191 31.7182 23.686 31.8289 23.5723C31.8842 23.5156 31.9276 23.4608 31.9586 23.409C31.9861 23.363 32.0167 23.2978 32.0167 23.2251H31.6167ZM28.5709 21.9095C29.8698 22.2337 30.6496 22.5675 31.0996 22.8315C31.3248 22.9636 31.4632 23.0758 31.5424 23.1571C31.5822 23.1979 31.6043 23.2281 31.6151 23.2463C31.6294 23.2702 31.6167 23.2601 31.6167 23.2251H32.0167C32.0167 23.1525 31.9861 23.0873 31.9586 23.0413C31.9276 22.9895 31.8842 22.9347 31.8289 22.878C31.7182 22.7643 31.5487 22.6312 31.3021 22.4865C30.8086 22.197 29.9897 21.8514 28.6678 21.5214L28.5709 21.9095Z" fill="#F6F7F9" mask="url(#path-1-outside-1_2626_27477)"/>
<mask id="path-3-outside-2_2626_27477" maskUnits="userSpaceOnUse" x="43.4639" y="2.21191" width="75" height="23" fill="black">
<rect fill="white" x="43.4639" y="2.21191" width="75" height="23"/>
<path fill-rule="evenodd" clip-rule="evenodd" d="M114.307 9.41247C113.976 9.22314 113.457 9.12848 112.75 9.12848V9.10481H104.211V5.60221C104.211 4.58456 104.07 3.9219 103.834 3.63791C103.598 3.35391 103.15 3.21191 102.513 3.21191C101.947 3.21191 101.522 3.33025 101.263 3.56691C101.003 3.80357 100.862 4.15856 100.862 4.65556V5.57854V9.12848H98.4086C97.182 9.12848 96.38 9.22314 96.0026 9.3888C95.6252 9.55447 95.4365 9.8858 95.4365 10.3591C95.4365 10.7851 95.5545 11.0928 95.8375 11.2821C96.1206 11.4714 96.5451 11.5661 97.1584 11.5661H100.838V17.3407V17.9087C100.838 19.0683 100.909 19.9203 101.027 20.4646C101.145 21.0326 101.357 21.5059 101.64 21.9082C102.206 22.7602 103.055 23.3992 104.211 23.8252C105.367 24.2512 106.782 24.4642 108.48 24.4642C109.495 24.4642 110.556 24.3695 111.688 24.1565C112.821 23.9435 114.094 23.6122 115.51 23.1626C116.359 22.9022 116.972 22.6182 117.326 22.3342C117.68 22.0502 117.868 21.7189 117.868 21.3403C117.868 21.0089 117.727 20.7249 117.444 20.4883C117.161 20.2516 116.807 20.1333 116.406 20.1333C115.981 20.1333 114.849 20.4409 113.009 21.0563C111.169 21.6716 109.589 21.9792 108.268 21.9792C106.782 21.9792 105.721 21.6716 105.107 21.0799C104.494 20.4883 104.187 19.234 104.187 17.3407V11.5424H112.986C113.599 11.5424 114.047 11.4478 114.354 11.2348C114.66 11.0454 114.802 10.7378 114.802 10.3355C114.802 9.90946 114.637 9.6018 114.307 9.41247ZM91.5447 16.1571C91.5447 18.6184 90.4832 20.6537 88.3839 22.2157C86.2611 23.7777 83.5249 24.5587 80.1519 24.5587C76.8025 24.5587 74.0663 23.7777 71.9434 22.2157C69.8206 20.6537 68.7827 18.6184 68.7827 16.1571C68.7827 13.6959 69.8442 11.6842 71.9434 10.1223C74.0663 8.56028 76.7789 7.7793 80.1519 7.7793C83.5013 7.7793 86.2375 8.56028 88.3604 10.1223C90.4832 11.6842 91.5447 13.6959 91.5447 16.1571ZM80.1519 22.121C82.3691 22.121 84.209 21.5531 85.6242 20.4407C87.0395 19.3284 87.7707 17.8848 87.7707 16.1571C87.7707 14.4295 87.063 12.9859 85.6242 11.8499C84.1854 10.7139 82.3691 10.1459 80.1519 10.1459C77.9347 10.1459 76.1184 10.7139 74.7032 11.8499C73.2879 12.9859 72.5567 14.4295 72.5567 16.1571C72.5567 17.9085 73.2643 19.3521 74.6796 20.4644C76.1184 21.5531 77.9347 22.121 80.1519 22.121ZM48.7804 21.6953H59.5835V20.796C59.5835 19.802 59.7014 19.163 59.9137 18.879C60.1496 18.595 60.5506 18.4294 61.1402 18.4294C61.6356 18.4294 62.013 18.5477 62.2724 18.7843C62.5083 19.021 62.6498 19.3523 62.6498 19.8257V22.6893C62.6498 23.2099 62.4611 23.5886 62.0837 23.8016C61.7063 24.0383 61.0459 24.1329 60.0788 24.1329H46.9406C46.1386 24.1329 45.5253 23.9909 45.1007 23.7306C44.6762 23.4703 44.4639 23.0679 44.4639 22.5709C44.4639 22.2633 44.5582 21.9556 44.7233 21.6953C44.912 21.4113 45.3366 21.009 45.9971 20.4883L58.4041 10.5958H48.0492V11.4715C48.0492 12.4891 47.9312 13.1281 47.7189 13.4121C47.4831 13.6961 47.0821 13.8381 46.4924 13.8381C45.9735 13.8381 45.5725 13.7198 45.313 13.4831C45.0536 13.2464 44.912 12.9151 44.912 12.4418V9.53085C44.912 9.05752 45.1479 8.70253 45.6432 8.48953C46.1386 8.27653 46.8934 8.1582 47.9312 8.1582H59.5363C60.5506 8.1582 61.3054 8.3002 61.8243 8.60786C62.3432 8.89186 62.6027 9.34152 62.6027 9.9095C62.6027 10.2408 62.4376 10.6195 62.1073 11.0455C61.7771 11.4715 61.3054 11.9211 60.6449 12.4181L48.7804 21.6953Z"/>
</mask>
<path fill-rule="evenodd" clip-rule="evenodd" d="M114.307 9.41247C113.976 9.22314 113.457 9.12848 112.75 9.12848V9.10481H104.211V5.60221C104.211 4.58456 104.07 3.9219 103.834 3.63791C103.598 3.35391 103.15 3.21191 102.513 3.21191C101.947 3.21191 101.522 3.33025 101.263 3.56691C101.003 3.80357 100.862 4.15856 100.862 4.65556V5.57854V9.12848H98.4086C97.182 9.12848 96.38 9.22314 96.0026 9.3888C95.6252 9.55447 95.4365 9.8858 95.4365 10.3591C95.4365 10.7851 95.5545 11.0928 95.8375 11.2821C96.1206 11.4714 96.5451 11.5661 97.1584 11.5661H100.838V17.3407V17.9087C100.838 19.0683 100.909 19.9203 101.027 20.4646C101.145 21.0326 101.357 21.5059 101.64 21.9082C102.206 22.7602 103.055 23.3992 104.211 23.8252C105.367 24.2512 106.782 24.4642 108.48 24.4642C109.495 24.4642 110.556 24.3695 111.688 24.1565C112.821 23.9435 114.094 23.6122 115.51 23.1626C116.359 22.9022 116.972 22.6182 117.326 22.3342C117.68 22.0502 117.868 21.7189 117.868 21.3403C117.868 21.0089 117.727 20.7249 117.444 20.4883C117.161 20.2516 116.807 20.1333 116.406 20.1333C115.981 20.1333 114.849 20.4409 113.009 21.0563C111.169 21.6716 109.589 21.9792 108.268 21.9792C106.782 21.9792 105.721 21.6716 105.107 21.0799C104.494 20.4883 104.187 19.234 104.187 17.3407V11.5424H112.986C113.599 11.5424 114.047 11.4478 114.354 11.2348C114.66 11.0454 114.802 10.7378 114.802 10.3355C114.802 9.90946 114.637 9.6018 114.307 9.41247ZM91.5447 16.1571C91.5447 18.6184 90.4832 20.6537 88.3839 22.2157C86.2611 23.7777 83.5249 24.5587 80.1519 24.5587C76.8025 24.5587 74.0663 23.7777 71.9434 22.2157C69.8206 20.6537 68.7827 18.6184 68.7827 16.1571C68.7827 13.6959 69.8442 11.6842 71.9434 10.1223C74.0663 8.56028 76.7789 7.7793 80.1519 7.7793C83.5013 7.7793 86.2375 8.56028 88.3604 10.1223C90.4832 11.6842 91.5447 13.6959 91.5447 16.1571ZM80.1519 22.121C82.3691 22.121 84.209 21.5531 85.6242 20.4407C87.0395 19.3284 87.7707 17.8848 87.7707 16.1571C87.7707 14.4295 87.063 12.9859 85.6242 11.8499C84.1854 10.7139 82.3691 10.1459 80.1519 10.1459C77.9347 10.1459 76.1184 10.7139 74.7032 11.8499C73.2879 12.9859 72.5567 14.4295 72.5567 16.1571C72.5567 17.9085 73.2643 19.3521 74.6796 20.4644C76.1184 21.5531 77.9347 22.121 80.1519 22.121ZM48.7804 21.6953H59.5835V20.796C59.5835 19.802 59.7014 19.163 59.9137 18.879C60.1496 18.595 60.5506 18.4294 61.1402 18.4294C61.6356 18.4294 62.013 18.5477 62.2724 18.7843C62.5083 19.021 62.6498 19.3523 62.6498 19.8257V22.6893C62.6498 23.2099 62.4611 23.5886 62.0837 23.8016C61.7063 24.0383 61.0459 24.1329 60.0788 24.1329H46.9406C46.1386 24.1329 45.5253 23.9909 45.1007 23.7306C44.6762 23.4703 44.4639 23.0679 44.4639 22.5709C44.4639 22.2633 44.5582 21.9556 44.7233 21.6953C44.912 21.4113 45.3366 21.009 45.9971 20.4883L58.4041 10.5958H48.0492V11.4715C48.0492 12.4891 47.9312 13.1281 47.7189 13.4121C47.4831 13.6961 47.0821 13.8381 46.4924 13.8381C45.9735 13.8381 45.5725 13.7198 45.313 13.4831C45.0536 13.2464 44.912 12.9151 44.912 12.4418V9.53085C44.912 9.05752 45.1479 8.70253 45.6432 8.48953C46.1386 8.27653 46.8934 8.1582 47.9312 8.1582H59.5363C60.5506 8.1582 61.3054 8.3002 61.8243 8.60786C62.3432 8.89186 62.6027 9.34152 62.6027 9.9095C62.6027 10.2408 62.4376 10.6195 62.1073 11.0455C61.7771 11.4715 61.3054 11.9211 60.6449 12.4181L48.7804 21.6953Z" fill="#F6F7F9"/>
<path d="M112.75 9.12848H112.25V9.62848H112.75V9.12848ZM112.75 9.10481H113.25V8.60481H112.75V9.10481ZM104.211 9.10481H103.711V9.60481H104.211V9.10481ZM103.834 3.63791L104.218 3.31845L104.218 3.31845L103.834 3.63791ZM101.263 3.56691L101.6 3.93632L101.6 3.93632L101.263 3.56691ZM100.862 9.12848V9.62848H101.362V9.12848H100.862ZM96.0026 9.3888L95.8017 8.93097L95.8016 8.93097L96.0026 9.3888ZM95.8375 11.2821L95.5595 11.6977L95.5595 11.6977L95.8375 11.2821ZM100.838 11.5661H101.338V11.0661H100.838V11.5661ZM101.027 20.4646L101.516 20.3629L101.515 20.3587L101.027 20.4646ZM101.64 21.9082L102.057 21.6314L102.049 21.6205L101.64 21.9082ZM111.688 24.1565L111.596 23.6652L111.596 23.6652L111.688 24.1565ZM115.51 23.1626L115.363 22.6845L115.358 22.686L115.51 23.1626ZM117.444 20.4883L117.123 20.8719L117.123 20.8719L117.444 20.4883ZM113.009 21.0563L113.168 21.5304L113.168 21.5304L113.009 21.0563ZM105.107 21.0799L104.76 21.4398L104.76 21.4398L105.107 21.0799ZM104.187 11.5424V11.0424H103.687V11.5424H104.187ZM114.354 11.2348L114.091 10.8093L114.08 10.8164L114.068 10.8241L114.354 11.2348ZM88.3839 22.2157L88.6803 22.6184L88.6824 22.6168L88.3839 22.2157ZM71.9434 10.1223L71.6471 9.71952L71.645 9.72111L71.9434 10.1223ZM88.3604 10.1223L88.6567 9.71952L88.6567 9.71952L88.3604 10.1223ZM85.6242 20.4407L85.3152 20.0476L85.3152 20.0476L85.6242 20.4407ZM85.6242 11.8499L85.934 11.4575L85.934 11.4575L85.6242 11.8499ZM74.7032 11.8499L74.3902 11.46L74.3902 11.46L74.7032 11.8499ZM74.6796 20.4644L74.3706 20.8576L74.3779 20.8631L74.6796 20.4644ZM59.5835 21.6953V22.1953H60.0835V21.6953H59.5835ZM48.7804 21.6953L48.4724 21.3014L47.3292 22.1953H48.7804V21.6953ZM59.9137 18.879L59.5291 18.5595L59.5209 18.5694L59.5132 18.5797L59.9137 18.879ZM62.2724 18.7843L62.6266 18.4314L62.6182 18.423L62.6094 18.4149L62.2724 18.7843ZM62.0837 23.8016L61.838 23.3662L61.8279 23.3718L61.8181 23.378L62.0837 23.8016ZM45.1007 23.7306L44.8394 24.1568L44.8394 24.1568L45.1007 23.7306ZM44.7233 21.6953L44.3068 21.4185L44.3011 21.4275L44.7233 21.6953ZM45.9971 20.4883L46.3066 20.881L46.3088 20.8793L45.9971 20.4883ZM58.4041 10.5958L58.7158 10.9868L59.8332 10.0958H58.4041V10.5958ZM48.0492 10.5958V10.0958H47.5492V10.5958H48.0492ZM47.7189 13.4121L48.1036 13.7316L48.1118 13.7217L48.1194 13.7115L47.7189 13.4121ZM45.6432 8.48953L45.8408 8.94886L45.8408 8.94886L45.6432 8.48953ZM61.8243 8.60786L61.5693 9.03795L61.5767 9.04234L61.5842 9.04647L61.8243 8.60786ZM62.1073 11.0455L62.5025 11.3518L62.5025 11.3518L62.1073 11.0455ZM60.6449 12.4181L60.3442 12.0185L60.3369 12.0242L60.6449 12.4181ZM112.75 9.62848C113.433 9.62848 113.844 9.72357 114.058 9.84623L114.555 8.97871C114.109 8.72271 113.481 8.62848 112.75 8.62848V9.62848ZM112.25 9.10481V9.12848H113.25V9.10481H112.25ZM104.211 9.60481H112.75V8.60481H104.211V9.60481ZM103.711 5.60221V9.10481H104.711V5.60221H103.711ZM103.449 3.95737C103.487 4.00363 103.561 4.14246 103.62 4.44183C103.677 4.72818 103.711 5.11367 103.711 5.60221H104.711C104.711 5.07309 104.675 4.61843 104.601 4.24804C104.531 3.89067 104.416 3.55617 104.218 3.31845L103.449 3.95737ZM102.513 3.71191C103.108 3.71191 103.36 3.85026 103.449 3.95737L104.218 3.31845C103.836 2.85756 103.191 2.71191 102.513 2.71191V3.71191ZM101.6 3.93632C101.723 3.82351 101.996 3.71191 102.513 3.71191V2.71191C101.898 2.71191 101.321 2.83698 100.926 3.1975L101.6 3.93632ZM101.362 4.65556C101.362 4.25562 101.472 4.05242 101.6 3.93632L100.926 3.1975C100.534 3.55472 100.362 4.06151 100.362 4.65556H101.362ZM101.362 5.57854V4.65556H100.362V5.57854H101.362ZM101.362 9.12848V5.57854H100.362V9.12848H101.362ZM98.4086 9.62848H100.862V8.62848H98.4086V9.62848ZM96.2036 9.84664C96.3213 9.79496 96.5551 9.73631 96.9422 9.69348C97.3189 9.65179 97.8064 9.62848 98.4086 9.62848V8.62848C97.7841 8.62848 97.2574 8.65249 96.8322 8.69955C96.4172 8.74547 96.0613 8.81698 95.8017 8.93097L96.2036 9.84664ZM95.9365 10.3591C95.9365 10.1875 95.9707 10.0782 96.0106 10.0094C96.0476 9.94566 96.1043 9.89023 96.2036 9.84664L95.8016 8.93097C95.5236 9.05305 95.2972 9.24611 95.1455 9.50777C94.9967 9.76443 94.9365 10.0574 94.9365 10.3591H95.9365ZM96.1155 10.8665C96.0237 10.8051 95.9365 10.6933 95.9365 10.3591H94.9365C94.9365 10.877 95.0852 11.3804 95.5595 11.6977L96.1155 10.8665ZM97.1584 11.0661C96.5801 11.0661 96.2756 10.9736 96.1155 10.8665L95.5595 11.6977C95.9655 11.9693 96.5102 12.0661 97.1584 12.0661V11.0661ZM100.838 11.0661H97.1584V12.0661H100.838V11.0661ZM101.338 17.3407V11.5661H100.338V17.3407H101.338ZM101.338 17.9087V17.3407H100.338V17.9087H101.338ZM101.515 20.3587C101.409 19.8664 101.338 19.0562 101.338 17.9087H100.338C100.338 19.0804 100.409 19.9741 100.538 20.5705L101.515 20.3587ZM102.049 21.6205C101.806 21.2753 101.621 20.8656 101.516 20.363L100.537 20.5663C100.669 21.1996 100.908 21.7365 101.231 22.1959L102.049 21.6205ZM104.384 23.3561C103.309 22.96 102.554 22.3801 102.056 21.6315L101.224 22.185C101.858 23.1404 102.801 23.8385 104.038 24.2944L104.384 23.3561ZM108.48 23.9642C106.821 23.9642 105.468 23.7557 104.384 23.3561L104.038 24.2944C105.266 24.7468 106.743 24.9642 108.48 24.9642V23.9642ZM111.596 23.6652C110.494 23.8725 109.463 23.9642 108.48 23.9642V24.9642C109.526 24.9642 110.619 24.8665 111.781 24.6479L111.596 23.6652ZM115.358 22.686C113.957 23.1312 112.703 23.4568 111.596 23.6652L111.781 24.6479C112.938 24.4303 114.232 24.0932 115.661 23.6391L115.358 22.686ZM117.013 21.9443C116.734 22.1679 116.194 22.4296 115.363 22.6845L115.656 23.6406C116.523 23.3749 117.21 23.0686 117.639 22.7242L117.013 21.9443ZM117.368 21.3403C117.368 21.5277 117.283 21.7273 117.013 21.9443L117.639 22.7242C118.076 22.3732 118.368 21.9101 118.368 21.3403H117.368ZM117.123 20.8719C117.307 21.0257 117.368 21.175 117.368 21.3403H118.368C118.368 20.8429 118.147 20.4242 117.764 20.1047L117.123 20.8719ZM116.406 20.6333C116.704 20.6333 116.941 20.7194 117.123 20.8719L117.764 20.1047C117.381 19.7838 116.909 19.6333 116.406 19.6333V20.6333ZM113.168 21.5304C114.084 21.2241 114.816 20.9968 115.369 20.8465C115.943 20.6907 116.27 20.6333 116.406 20.6333V19.6333C116.117 19.6333 115.666 19.7297 115.107 19.8815C114.528 20.0389 113.775 20.2731 112.851 20.5821L113.168 21.5304ZM108.268 22.4792C109.662 22.4792 111.299 22.1556 113.168 21.5304L112.851 20.5821C111.04 21.1875 109.516 21.4792 108.268 21.4792V22.4792ZM104.76 21.4398C105.514 22.167 106.738 22.4792 108.268 22.4792V21.4792C106.826 21.4792 105.927 21.1762 105.455 20.7201L104.76 21.4398ZM103.687 17.3407C103.687 18.3104 103.766 19.1408 103.932 19.8177C104.097 20.4896 104.359 21.0529 104.76 21.4398L105.455 20.7201C105.242 20.5153 105.045 20.1556 104.903 19.5791C104.763 19.0077 104.687 18.2642 104.687 17.3407H103.687ZM103.687 11.5424V17.3407H104.687V11.5424H103.687ZM112.986 11.0424H104.187V12.0424H112.986V11.0424ZM114.068 10.8241C113.888 10.9495 113.565 11.0424 112.986 11.0424V12.0424C113.633 12.0424 114.206 11.946 114.639 11.6454L114.068 10.8241ZM114.302 10.3355C114.302 10.6079 114.217 10.7318 114.091 10.8093L114.616 11.6602C115.104 11.3591 115.302 10.8676 115.302 10.3355H114.302ZM114.058 9.84623C114.211 9.93432 114.302 10.0629 114.302 10.3355H115.302C115.302 9.75607 115.062 9.26928 114.555 8.97871L114.058 9.84623ZM88.6824 22.6168C90.8992 20.9674 92.0447 18.7877 92.0447 16.1571H91.0447C91.0447 18.4492 90.0672 20.34 88.0855 21.8146L88.6824 22.6168ZM80.1519 25.0587C83.602 25.0587 86.4504 24.2591 88.6803 22.6184L88.0876 21.813C86.0717 23.2963 83.4478 24.0587 80.1519 24.0587V25.0587ZM71.6471 22.6184C73.8767 24.2589 76.7249 25.0587 80.1519 25.0587V24.0587C76.88 24.0587 74.256 23.2965 72.2398 21.813L71.6471 22.6184ZM68.2827 16.1571C68.2827 18.785 69.4024 20.9668 71.6471 22.6184L72.2398 21.813C70.2387 20.3406 69.2827 18.4518 69.2827 16.1571H68.2827ZM71.645 9.72111C69.4296 11.3694 68.2827 13.5249 68.2827 16.1571H69.2827C69.2827 13.8669 70.2587 11.999 72.2419 10.5234L71.645 9.72111ZM80.1519 7.2793C76.7009 7.2793 73.8764 8.07928 71.6471 9.71952L72.2398 10.525C74.2563 9.04129 76.8569 8.2793 80.1519 8.2793V7.2793ZM88.6567 9.71952C86.4271 8.07907 83.5789 7.2793 80.1519 7.2793V8.2793C83.4238 8.2793 86.0478 9.0415 88.064 10.525L88.6567 9.71952ZM92.0447 16.1571C92.0447 13.5242 90.897 11.3679 88.6567 9.71952L88.064 10.525C90.0694 12.0005 91.0447 13.8675 91.0447 16.1571H92.0447ZM85.3152 20.0476C84.0064 21.0763 82.2828 21.621 80.1519 21.621V22.621C82.4554 22.621 84.4115 22.0298 85.9332 20.8339L85.3152 20.0476ZM87.2707 16.1571C87.2707 17.7217 86.6177 19.0239 85.3152 20.0476L85.9332 20.8339C87.4612 19.6329 88.2707 18.0479 88.2707 16.1571H87.2707ZM85.3144 12.2423C86.6386 13.2879 87.2707 14.5895 87.2707 16.1571H88.2707C88.2707 14.2696 87.4874 12.6839 85.934 11.4575L85.3144 12.2423ZM80.1519 10.6459C82.2803 10.6459 83.9807 11.1894 85.3144 12.2423L85.934 11.4575C84.3901 10.2385 82.458 9.64592 80.1519 9.64592V10.6459ZM75.0162 12.2398C76.3243 11.1898 78.0225 10.6459 80.1519 10.6459V9.64592C77.8469 9.64592 75.9126 10.238 74.3902 11.46L75.0162 12.2398ZM73.0567 16.1571C73.0567 14.5933 73.7093 13.2888 75.0162 12.2398L74.3902 11.46C72.8665 12.683 72.0567 14.2657 72.0567 16.1571H73.0567ZM74.9886 20.0713C73.691 19.0515 73.0567 17.7513 73.0567 16.1571H72.0567C72.0567 18.0656 72.8377 19.6527 74.3706 20.8575L74.9886 20.0713ZM80.1519 21.621C78.0234 21.621 76.3184 21.0774 74.9813 20.0657L74.3779 20.8631C75.9184 22.0287 77.846 22.621 80.1519 22.621V21.621ZM59.5835 21.1953H48.7804V22.1953H59.5835V21.1953ZM59.0835 20.796V21.6953H60.0835V20.796H59.0835ZM59.5132 18.5797C59.3365 18.816 59.237 19.1397 59.1765 19.4849C59.1137 19.8427 59.0835 20.2821 59.0835 20.796H60.0835C60.0835 20.3159 60.1122 19.9387 60.1615 19.6576C60.213 19.3638 60.2786 19.226 60.3142 19.1784L59.5132 18.5797ZM61.1402 17.9294C60.4635 17.9294 59.8933 18.121 59.5291 18.5595L60.2983 19.1985C60.4058 19.069 60.6376 18.9294 61.1402 18.9294V17.9294ZM62.6094 18.4149C62.226 18.0652 61.7092 17.9294 61.1402 17.9294V18.9294C61.562 18.9294 61.8 19.0301 61.9355 19.1538L62.6094 18.4149ZM63.1498 19.8257C63.1498 19.2428 62.9708 18.7767 62.6266 18.4314L61.9183 19.1373C62.0459 19.2653 62.1498 19.4619 62.1498 19.8257H63.1498ZM63.1498 22.6893V19.8257H62.1498V22.6893H63.1498ZM62.3295 24.237C62.9021 23.9138 63.1498 23.3418 63.1498 22.6893H62.1498C62.1498 23.0781 62.0201 23.2634 61.838 23.3662L62.3295 24.237ZM60.0788 24.6329C60.5757 24.6329 61.0117 24.6088 61.3813 24.5497C61.7465 24.4914 62.0803 24.3939 62.3494 24.2252L61.8181 23.378C61.7098 23.4459 61.5247 23.5141 61.2235 23.5623C60.9268 23.6097 60.549 23.6329 60.0788 23.6329V24.6329ZM46.9406 24.6329H60.0788V23.6329H46.9406V24.6329ZM44.8394 24.1568C45.3727 24.4838 46.0895 24.6329 46.9406 24.6329V23.6329C46.1877 23.6329 45.6779 23.498 45.3621 23.3043L44.8394 24.1568ZM43.9639 22.5709C43.9639 23.2323 44.2585 23.8007 44.8394 24.1568L45.3621 23.3043C45.0938 23.1398 44.9639 22.9036 44.9639 22.5709H43.9639ZM44.3011 21.4275C44.0882 21.7632 43.9639 22.163 43.9639 22.5709H44.9639C44.9639 22.3635 45.0283 22.1481 45.1456 21.9631L44.3011 21.4275ZM45.6875 20.0957C45.0288 20.6149 44.5447 21.0606 44.3069 21.4186L45.1398 21.972C45.2793 21.762 45.6444 21.403 46.3066 20.881L45.6875 20.0957ZM58.0924 10.2049L45.6853 20.0974L46.3088 20.8793L58.7158 10.9868L58.0924 10.2049ZM48.0492 11.0958H58.4041V10.0958H48.0492V11.0958ZM48.5492 11.4715V10.5958H47.5492V11.4715H48.5492ZM48.1194 13.7115C48.2964 13.4748 48.3958 13.1507 48.4563 12.8025C48.519 12.4418 48.5492 11.9966 48.5492 11.4715H47.5492C47.5492 11.964 47.5204 12.3472 47.471 12.6313C47.4195 12.928 47.3538 13.0655 47.3185 13.1128L48.1194 13.7115ZM46.4924 14.3381C47.1467 14.3381 47.7296 14.1818 48.1036 13.7316L47.3343 13.0926C47.2365 13.2104 47.0175 13.3381 46.4924 13.3381V14.3381ZM44.9761 13.8525C45.365 14.2072 45.9107 14.3381 46.4924 14.3381V13.3381C46.0362 13.3381 45.78 13.2323 45.65 13.1137L44.9761 13.8525ZM44.412 12.4418C44.412 13.0258 44.5925 13.5027 44.9761 13.8525L45.65 13.1137C45.5146 12.9902 45.412 12.8044 45.412 12.4418H44.412ZM44.412 9.53085V12.4418H45.412V9.53085H44.412ZM45.4457 8.0302C45.1318 8.1652 44.8662 8.36023 44.6808 8.62788C44.4939 8.89781 44.412 9.20776 44.412 9.53085H45.412C45.412 9.38061 45.4481 9.27639 45.5029 9.19725C45.5593 9.11582 45.6594 9.02686 45.8408 8.94886L45.4457 8.0302ZM47.9312 7.6582C46.869 7.6582 46.0338 7.7773 45.4457 8.0302L45.8408 8.94886C46.2433 8.77576 46.9177 8.6582 47.9312 8.6582V7.6582ZM59.5363 7.6582H47.9312V8.6582H59.5363V7.6582ZM62.0793 8.17777C61.4445 7.80141 60.5809 7.6582 59.5363 7.6582V8.6582C60.5202 8.6582 61.1662 8.79899 61.5693 9.03795L62.0793 8.17777ZM63.1027 9.9095C63.1027 9.15883 62.7436 8.54098 62.0643 8.16925L61.5842 9.04647C61.9428 9.24273 62.1027 9.5242 62.1027 9.9095H63.1027ZM62.5025 11.3518C62.8614 10.8889 63.1027 10.4023 63.1027 9.9095H62.1027C62.1027 10.0794 62.0138 10.3501 61.7122 10.7392L62.5025 11.3518ZM60.9455 12.8176C61.6283 12.3038 62.1365 11.8239 62.5025 11.3518L61.7122 10.7392C61.4177 11.119 60.9824 11.5384 60.3443 12.0186L60.9455 12.8176ZM49.0884 22.0892L60.9529 12.812L60.3369 12.0242L48.4724 21.3014L49.0884 22.0892Z" fill="#F6F7F9" mask="url(#path-3-outside-2_2626_27477)"/>
</svg>
