<svg width="29" height="26" viewBox="0 0 29 26" fill="none" xmlns="http://www.w3.org/2000/svg">
<mask id="path-1-outside-1_2626_27487" maskUnits="userSpaceOnUse" x="-0.260254" y="-0.0800781" width="29" height="26" fill="black">
<rect fill="white" x="-0.260254" y="-0.0800781" width="29" height="26"/>
<path fill-rule="evenodd" clip-rule="evenodd" d="M0.739746 4.94585C0.739746 7.71368 7.92075 8.97178 14.6038 8.97178C17.4889 8.97178 20.4717 8.73731 22.9281 8.24811C22.8845 11.1252 18.7352 14.8795 16.7868 15.8743C16.714 15.9074 16.6501 15.938 16.5955 15.9663C16.6565 15.9389 16.7203 15.9083 16.7868 15.8743C17.0193 15.7687 17.3409 15.6384 17.7294 15.481C20.8867 14.2018 28.4584 11.1341 28.4677 4.98415C28.4679 4.97141 28.468 4.95865 28.4678 4.94585C28.4678 2.17803 21.2868 0.919922 14.6038 0.919922C7.92075 0.919922 0.739746 2.17803 0.739746 4.94585ZM5.58823 3.43613C7.99937 2.83224 11.1967 2.50513 14.6038 2.50513C18.0108 2.50513 21.2344 2.83224 23.6194 3.43613C26.2402 4.09034 26.8167 4.79488 26.8167 4.94585C26.8167 5.09682 26.2402 5.80136 23.6194 6.45558C21.2082 7.05947 18.0108 7.38657 14.6038 7.38657C11.1967 7.38657 7.97316 7.05947 5.58823 6.45558C2.96743 5.80136 2.39085 5.09682 2.39085 4.94585C2.39085 4.79488 2.96743 4.09034 5.58823 3.43613ZM0.739746 21.2251C0.739746 23.993 7.92075 25.2511 14.6038 25.2511C21.2868 25.2511 28.494 23.993 28.4678 21.2251C28.4678 19.296 24.9795 18.1003 20.6027 17.5528C22.2788 16.0469 24.1261 14.2008 26.1353 11.9404C23.4536 14.2384 20.5156 15.9717 17.5815 17.2829C16.5947 17.2268 15.5938 17.1992 14.6038 17.1992C7.92075 17.1992 0.739746 18.4573 0.739746 21.2251ZM2.39665 21.1943C5.3029 20.8823 9.36553 20.2435 13.6984 18.7922C10.6331 18.8449 7.78451 19.1653 5.58823 19.7154C3.11561 20.3326 2.46259 20.9947 2.39665 21.1943ZM23.6194 19.7154C22.2881 19.3783 20.6954 19.1275 18.9555 18.9716C15.6814 21.6675 13.1766 22.9732 11.5271 23.5743C12.5225 23.6348 13.5545 23.6659 14.6038 23.6659C18.0108 23.6659 21.2082 23.3388 23.6194 22.7349C26.2402 22.0807 26.8167 21.3761 26.8167 21.2251C26.8167 21.0742 26.2402 20.3696 23.6194 19.7154Z"/>
</mask>
<path fill-rule="evenodd" clip-rule="evenodd" d="M0.739746 4.94585C0.739746 7.71368 7.92075 8.97178 14.6038 8.97178C17.4889 8.97178 20.4717 8.73731 22.9281 8.24811C22.8845 11.1252 18.7352 14.8795 16.7868 15.8743C16.714 15.9074 16.6501 15.938 16.5955 15.9663C16.6565 15.9389 16.7203 15.9083 16.7868 15.8743C17.0193 15.7687 17.3409 15.6384 17.7294 15.481C20.8867 14.2018 28.4584 11.1341 28.4677 4.98415C28.4679 4.97141 28.468 4.95865 28.4678 4.94585C28.4678 2.17803 21.2868 0.919922 14.6038 0.919922C7.92075 0.919922 0.739746 2.17803 0.739746 4.94585ZM5.58823 3.43613C7.99937 2.83224 11.1967 2.50513 14.6038 2.50513C18.0108 2.50513 21.2344 2.83224 23.6194 3.43613C26.2402 4.09034 26.8167 4.79488 26.8167 4.94585C26.8167 5.09682 26.2402 5.80136 23.6194 6.45558C21.2082 7.05947 18.0108 7.38657 14.6038 7.38657C11.1967 7.38657 7.97316 7.05947 5.58823 6.45558C2.96743 5.80136 2.39085 5.09682 2.39085 4.94585C2.39085 4.79488 2.96743 4.09034 5.58823 3.43613ZM0.739746 21.2251C0.739746 23.993 7.92075 25.2511 14.6038 25.2511C21.2868 25.2511 28.494 23.993 28.4678 21.2251C28.4678 19.296 24.9795 18.1003 20.6027 17.5528C22.2788 16.0469 24.1261 14.2008 26.1353 11.9404C23.4536 14.2384 20.5156 15.9717 17.5815 17.2829C16.5947 17.2268 15.5938 17.1992 14.6038 17.1992C7.92075 17.1992 0.739746 18.4573 0.739746 21.2251ZM2.39665 21.1943C5.3029 20.8823 9.36553 20.2435 13.6984 18.7922C10.6331 18.8449 7.78451 19.1653 5.58823 19.7154C3.11561 20.3326 2.46259 20.9947 2.39665 21.1943ZM23.6194 19.7154C22.2881 19.3783 20.6954 19.1275 18.9555 18.9716C15.6814 21.6675 13.1766 22.9732 11.5271 23.5743C12.5225 23.6348 13.5545 23.6659 14.6038 23.6659C18.0108 23.6659 21.2082 23.3388 23.6194 22.7349C26.2402 22.0807 26.8167 21.3761 26.8167 21.2251C26.8167 21.0742 26.2402 20.3696 23.6194 19.7154Z" fill="#F6F7F9"/>
<path d="M22.9281 8.24811L23.128 8.25114L23.1318 8.00361L22.889 8.05196L22.9281 8.24811ZM16.5955 15.9663L16.5034 15.7887L16.6772 16.1488L16.5955 15.9663ZM17.7294 15.481L17.6542 15.2956L17.6542 15.2956L17.7294 15.481ZM28.4677 4.98415L28.2677 4.98121L28.2677 4.98384L28.4677 4.98415ZM28.4678 4.94585L28.2678 4.94585L28.2678 4.94776L28.4678 4.94585ZM5.58823 3.43613L5.63667 3.63017L5.63682 3.63014L5.58823 3.43613ZM23.6194 3.43613L23.5703 3.63001L23.5709 3.63017L23.6194 3.43613ZM23.6194 6.45558L23.5709 6.26153L23.5708 6.26157L23.6194 6.45558ZM5.58823 6.45558L5.63732 6.26169L5.63667 6.26153L5.58823 6.45558ZM28.4678 21.2251H28.2678L28.2678 21.227L28.4678 21.2251ZM20.6027 17.5528L20.4691 17.404L20.1431 17.6969L20.5779 17.7513L20.6027 17.5528ZM26.1353 11.9404L26.2848 12.0733L26.0052 11.7886L26.1353 11.9404ZM17.5815 17.2829L17.5702 17.4825L17.6187 17.4853L17.6631 17.4655L17.5815 17.2829ZM13.6984 18.7922L13.7619 18.9818L13.6949 18.5922L13.6984 18.7922ZM2.39665 21.1943L2.20674 21.1316L2.10941 21.4263L2.418 21.3932L2.39665 21.1943ZM5.58823 19.7154L5.63667 19.9095L5.63682 19.9094L5.58823 19.7154ZM18.9555 18.9716L18.9733 18.7724L18.8916 18.7651L18.8283 18.8172L18.9555 18.9716ZM23.6194 19.7154L23.5703 19.9093L23.5709 19.9095L23.6194 19.7154ZM11.5271 23.5743L11.4587 23.3863L11.515 23.7739L11.5271 23.5743ZM23.6194 22.7349L23.5709 22.5408L23.5708 22.5409L23.6194 22.7349ZM14.6038 8.77178C11.2718 8.77178 7.82352 8.45789 5.21433 7.80277C3.9082 7.47483 2.82624 7.06472 2.07546 6.57506C1.32246 6.08396 0.939746 5.53934 0.939746 4.94585H0.539746C0.539746 5.73628 1.05465 6.38685 1.85694 6.9101C2.66144 7.43479 3.79242 7.85817 5.11692 8.19073C7.769 8.85662 11.2527 9.17178 14.6038 9.17178V8.77178ZM22.889 8.05196C20.4489 8.53793 17.4797 8.77178 14.6038 8.77178V9.17178C17.4981 9.17178 20.4946 8.93669 22.9671 8.44426L22.889 8.05196ZM16.8777 16.0525C17.8795 15.541 19.4226 14.3362 20.7201 12.9012C21.3703 12.1822 21.9642 11.3995 22.3993 10.6101C22.8333 9.82258 23.1165 9.01549 23.128 8.25114L22.7281 8.24508C22.7179 8.9193 22.466 9.66042 22.0489 10.4171C21.6329 11.1719 21.0595 11.9294 20.4234 12.633C19.1483 14.0431 17.6425 15.2129 16.6958 15.6962L16.8777 16.0525ZM16.704 15.6923C16.6294 15.7262 16.5621 15.7583 16.5034 15.7887L16.6875 16.1439C16.738 16.1177 16.7987 16.0886 16.8695 16.0564L16.704 15.6923ZM16.6772 16.1488C16.7417 16.1199 16.8086 16.0877 16.8777 16.0525L16.6958 15.6962C16.6321 15.7288 16.5713 15.758 16.5137 15.7838L16.6772 16.1488ZM17.6542 15.2956C17.2675 15.4524 16.9412 15.5845 16.704 15.6923L16.8695 16.0564C17.0973 15.9529 17.4143 15.8244 17.8045 15.6664L17.6542 15.2956ZM28.2677 4.98384C28.2632 7.9668 26.4266 10.2192 24.16 11.8984C21.8943 13.5768 19.2346 14.6553 17.6542 15.2956L17.8045 15.6664C19.3814 15.0275 22.0862 13.9325 24.3981 12.2198C26.709 10.5078 28.6629 8.15139 28.6677 4.98445L28.2677 4.98384ZM28.2678 4.94776C28.268 4.95893 28.2679 4.97008 28.2678 4.98121L28.6677 4.98708C28.6679 4.97275 28.668 4.95837 28.6678 4.94394L28.2678 4.94776ZM14.6038 1.11992C17.9358 1.11992 21.3841 1.43381 23.9933 2.08893C25.2994 2.41688 26.3813 2.82699 27.1321 3.31664C27.8851 3.80774 28.2678 4.35236 28.2678 4.94585H28.6678C28.6678 4.15543 28.1529 3.50485 27.3506 2.9816C26.5461 2.45691 25.4152 2.03353 24.0907 1.70097C21.4386 1.03508 17.9549 0.719922 14.6038 0.719922V1.11992ZM0.939746 4.94585C0.939746 4.35236 1.32246 3.80774 2.07546 3.31664C2.82624 2.82699 3.9082 2.41688 5.21433 2.08893C7.82352 1.43381 11.2718 1.11992 14.6038 1.11992V0.719922C11.2527 0.719922 7.769 1.03508 5.11692 1.70097C3.79242 2.03353 2.66144 2.45691 1.85694 2.9816C1.05465 3.50485 0.539746 4.15543 0.539746 4.94585H0.939746ZM14.6038 2.30513C11.1862 2.30513 7.97147 2.63305 5.53964 3.24212L5.63682 3.63014C8.02727 3.03143 11.2073 2.70513 14.6038 2.70513V2.30513ZM23.6684 3.24225C21.2623 2.63299 18.0211 2.30513 14.6038 2.30513V2.70513C18.0006 2.70513 21.2065 3.03148 23.5703 3.63001L23.6684 3.24225ZM27.0167 4.94585C27.0167 4.87318 26.9861 4.80802 26.9586 4.76197C26.9276 4.71016 26.8842 4.65541 26.8289 4.59869C26.7182 4.485 26.5487 4.35189 26.3021 4.2072C25.8086 3.91766 24.9897 3.57205 23.6678 3.24208L23.5709 3.63017C24.8698 3.95442 25.6496 4.28818 26.0996 4.55221C26.3248 4.6843 26.4632 4.79652 26.5424 4.87784C26.5822 4.91862 26.6043 4.9488 26.6151 4.96697C26.6294 4.9909 26.6167 4.98079 26.6167 4.94585H27.0167ZM23.6678 6.64962C24.9897 6.31965 25.8086 5.97404 26.3021 5.6845C26.5487 5.53981 26.7182 5.4067 26.8289 5.29301C26.8842 5.2363 26.9276 5.18155 26.9586 5.12974C26.9861 5.08369 27.0167 5.01853 27.0167 4.94585H26.6167C26.6167 4.91092 26.6294 4.9008 26.6151 4.92473C26.6043 4.94291 26.5822 4.97308 26.5424 5.01387C26.4632 5.09518 26.3248 5.2074 26.0996 5.3395C25.6496 5.60352 24.8698 5.93729 23.5709 6.26153L23.6678 6.64962ZM14.6038 7.58657C18.0214 7.58657 21.2361 7.25866 23.6679 6.64958L23.5708 6.26157C21.1803 6.86028 18.0003 7.18657 14.6038 7.18657V7.58657ZM5.53914 6.64946C7.94525 7.25871 11.1865 7.58657 14.6038 7.58657V7.18657C11.207 7.18657 8.00107 6.86022 5.63732 6.26169L5.53914 6.64946ZM2.19085 4.94585C2.19085 5.01853 2.22152 5.08369 2.24901 5.12974C2.27993 5.18155 2.32338 5.2363 2.37865 5.29301C2.48942 5.4067 2.65893 5.53981 2.90553 5.6845C3.39902 5.97404 4.21792 6.31965 5.53979 6.64962L5.63667 6.26153C4.33774 5.93729 3.55795 5.60352 3.10795 5.3395C2.88281 5.2074 2.74437 5.09518 2.66514 5.01387C2.6254 4.97308 2.60333 4.94291 2.59248 4.92473C2.5782 4.9008 2.59085 4.91092 2.59085 4.94585H2.19085ZM5.53979 3.24208C4.21792 3.57205 3.39902 3.91766 2.90553 4.2072C2.65893 4.35189 2.48942 4.485 2.37865 4.59869C2.32338 4.65541 2.27993 4.71016 2.24901 4.76197C2.22152 4.80802 2.19085 4.87318 2.19085 4.94585H2.59085C2.59085 4.98079 2.5782 4.9909 2.59248 4.96697C2.60333 4.9488 2.6254 4.91862 2.66514 4.87784C2.74437 4.79652 2.88281 4.6843 3.10795 4.55221C3.55795 4.28818 4.33774 3.95442 5.63667 3.63017L5.53979 3.24208ZM14.6038 25.0511C11.2718 25.0511 7.82352 24.7372 5.21433 24.0821C3.9082 23.7541 2.82624 23.344 2.07546 22.8544C1.32246 22.3633 0.939746 21.8186 0.939746 21.2251H0.539746C0.539746 22.0156 1.05465 22.6662 1.85694 23.1894C2.66144 23.7141 3.79242 24.1375 5.11692 24.47C7.769 25.1359 11.2527 25.4511 14.6038 25.4511V25.0511ZM28.2678 21.227C28.2735 21.8196 27.8947 22.3635 27.1431 22.8544C26.3936 23.344 25.311 23.7541 24.0031 24.0821C21.3907 24.7372 17.9358 25.0511 14.6038 25.0511V25.4511C17.9548 25.4511 21.4451 25.1359 24.1004 24.47C25.4265 24.1375 26.5584 23.7141 27.3618 23.1893C28.163 22.666 28.6753 22.0147 28.6678 21.2233L28.2678 21.227ZM20.5779 17.7513C22.7586 18.0241 24.7036 18.4569 26.0978 19.0547C26.7951 19.3537 27.3428 19.6891 27.7136 20.0565C28.0818 20.4215 28.2678 20.8096 28.2678 21.2251H28.6678C28.6678 20.6761 28.4178 20.1913 27.9952 19.7725C27.5751 19.3561 26.9772 18.9966 26.2554 18.6871C24.8112 18.0678 22.8236 17.6291 20.6276 17.3543L20.5779 17.7513ZM25.9858 11.8076C23.9811 14.0628 22.1391 15.9036 20.4691 17.404L20.7364 17.7016C22.4185 16.1902 24.2711 14.3387 26.2848 12.0733L25.9858 11.8076ZM17.6631 17.4655C20.6116 16.1478 23.5666 14.4049 26.2654 12.0923L26.0052 11.7886C23.3405 14.0719 20.4196 15.7955 17.4999 17.1003L17.6631 17.4655ZM14.6038 17.3992C15.5901 17.3992 16.5872 17.4267 17.5702 17.4825L17.5929 17.0832C16.6021 17.0269 15.5974 16.9992 14.6038 16.9992V17.3992ZM0.939746 21.2251C0.939746 20.6317 1.32246 20.087 2.07546 19.5959C2.82624 19.1063 3.9082 18.6962 5.21433 18.3682C7.82352 17.7131 11.2718 17.3992 14.6038 17.3992V16.9992C11.2527 16.9992 7.769 17.3144 5.11692 17.9803C3.79242 18.3128 2.66144 18.7362 1.85694 19.2609C1.05465 19.7841 0.539746 20.4347 0.539746 21.2251H0.939746ZM13.6349 18.6025C9.32025 20.0477 5.27292 20.6844 2.3753 20.9955L2.418 21.3932C5.33287 21.0802 9.41082 20.4392 13.7619 18.9818L13.6349 18.6025ZM5.63682 19.9094C7.81394 19.3642 10.6465 19.0447 13.7018 18.9922L13.6949 18.5922C10.6198 18.6451 7.75508 18.9665 5.53964 19.5214L5.63682 19.9094ZM2.58656 21.2571C2.58556 21.2601 2.58962 21.2475 2.61094 21.2193C2.63111 21.1925 2.66292 21.1568 2.7104 21.1134C2.80542 21.0265 2.95697 20.9144 3.18724 20.7862C3.64783 20.5297 4.41141 20.2153 5.63667 19.9095L5.53979 19.5214C4.29244 19.8327 3.49319 20.158 2.99263 20.4367C2.74233 20.5761 2.56372 20.7055 2.44048 20.8182C2.32272 20.9259 2.23933 21.0329 2.20674 21.1316L2.58656 21.2571ZM18.9376 19.1708C20.6702 19.326 22.2519 19.5755 23.5703 19.9093L23.6684 19.5215C22.3242 19.1812 20.7207 18.9289 18.9733 18.7724L18.9376 19.1708ZM11.5956 23.7622C13.2706 23.1518 15.7948 21.8331 19.0826 19.126L18.8283 18.8172C15.5679 21.5018 13.0826 22.7945 11.4587 23.3863L11.5956 23.7622ZM14.6038 23.4659C13.5584 23.4659 12.5305 23.435 11.5393 23.3746L11.515 23.7739C12.5146 23.8347 13.5506 23.8659 14.6038 23.8659V23.4659ZM23.5708 22.5409C21.1803 23.1396 18.0003 23.4659 14.6038 23.4659V23.8659C18.0214 23.8659 21.2361 23.538 23.6679 22.9289L23.5708 22.5409ZM26.6167 21.2251C26.6167 21.1902 26.6294 21.1801 26.6151 21.204C26.6043 21.2222 26.5822 21.2524 26.5424 21.2932C26.4632 21.3745 26.3248 21.4867 26.0996 21.6188C25.6496 21.8828 24.8698 22.2166 23.5709 22.5408L23.6678 22.9289C24.9897 22.5989 25.8086 22.2533 26.3021 21.9638C26.5487 21.8191 26.7182 21.686 26.8289 21.5723C26.8842 21.5156 26.9276 21.4608 26.9586 21.409C26.9861 21.363 27.0167 21.2978 27.0167 21.2251H26.6167ZM23.5709 19.9095C24.8698 20.2337 25.6496 20.5675 26.0996 20.8315C26.3248 20.9636 26.4632 21.0758 26.5424 21.1571C26.5822 21.1979 26.6043 21.2281 26.6151 21.2463C26.6294 21.2702 26.6167 21.2601 26.6167 21.2251H27.0167C27.0167 21.1525 26.9861 21.0873 26.9586 21.0413C26.9276 20.9895 26.8842 20.9347 26.8289 20.878C26.7182 20.7643 26.5487 20.6312 26.3021 20.4865C25.8086 20.197 24.9897 19.8514 23.6678 19.5214L23.5709 19.9095Z" fill="#F6F7F9" mask="url(#path-1-outside-1_2626_27487)"/>
</svg>
