<svg width="489" height="152" viewBox="0 0 489 152" fill="none" xmlns="http://www.w3.org/2000/svg">
<g clip-path="url(#clip0_1434_24034)">
<path d="M75.8 151.6C117.663 151.6 151.6 117.663 151.6 75.8C151.6 33.9368 117.663 0 75.8 0C33.9368 0 0 33.9368 0 75.8C0 117.663 33.9368 151.6 75.8 151.6Z" fill="#231F20"/>
<path d="M74.7999 124.2C49.2999 124.2 21.8999 119.2 21.8999 108.2C21.8999 97.2002 49.2999 92.2002 74.7999 92.2002C100.3 92.2002 127.7 97.2002 127.7 108.2C127.8 119.2 100.3 124.2 74.7999 124.2ZM74.7999 98.5002C61.7999 98.5002 49.5999 99.8002 40.3999 102.2C30.3999 104.8 28.1999 107.6 28.1999 108.2C28.1999 108.8 30.3999 111.6 40.3999 114.2C49.4999 116.6 61.7999 117.9 74.7999 117.9C87.7999 117.9 99.9999 116.6 109.2 114.2C119.2 111.6 121.4 108.8 121.4 108.2C121.4 107.6 119.2 104.8 109.2 102.2C100.1 99.8002 87.7999 98.5002 74.7999 98.5002Z" fill="white"/>
<path d="M46.8999 100.8C55.0999 99.4998 75.0999 93.3998 84.3999 89.2998L103.3 92.0998C99.3999 95.6998 96.6999 98.8998 93.1999 101.8L46.8999 100.8Z" fill="#231F20"/>
<path d="M74.7999 59.5C49.2999 59.5 21.8999 54.5 21.8999 43.5C21.8999 32.5 49.2999 27.5 74.7999 27.5C100.3 27.5 127.7 32.5 127.7 43.5C127.8 54.5 100.3 59.5 74.7999 59.5ZM74.7999 33.8C61.7999 33.8 49.5999 35.1 40.3999 37.5C30.3999 40.1 28.1999 42.9 28.1999 43.5C28.1999 44.1 30.3999 46.9 40.3999 49.5C49.4999 51.9 61.7999 53.2 74.7999 53.2C87.7999 53.2 99.9999 51.9 109.2 49.5C119.2 46.9 121.4 44.1 121.4 43.5C121.4 42.9 119.2 40.1 109.2 37.5C100.1 35.1 87.7999 33.8 74.7999 33.8Z" fill="white"/>
<path d="M118.8 71.2998C82.7001 113.6 60.3001 119.4 55.3001 119.4C55.0001 119.4 28.1001 113.5 28.0001 113.5L27.1001 108.2C48.6001 105.9 88.1001 98.6998 118.8 71.2998Z" fill="white"/>
<path d="M82.3999 87.3C89.8999 83.8 108.5 66.5 106.4 54.5L127.7 43.5C127.8 72 88.6999 83.9 82.3999 87.3Z" fill="white"/>
<path d="M195.6 99.4002H241.4V95.6002C241.4 91.4002 241.9 88.7002 242.8 87.5002C243.8 86.3002 245.5 85.6002 248 85.6002C250.1 85.6002 251.7 86.1002 252.8 87.1002C253.8 88.1002 254.4 89.5002 254.4 91.5002V103.6C254.4 105.8 253.6 107.4 252 108.3C250.4 109.3 247.6 109.7 243.5 109.7H187.8C184.4 109.7 181.8 109.1 180 108C178.2 106.9 177.3 105.2 177.3 103.1C177.3 101.8 177.7 100.5 178.4 99.4002C179.2 98.2002 181 96.5002 183.8 94.3002L236.4 52.5002H192.5V56.2002C192.5 60.5002 192 63.2002 191.1 64.4002C190.1 65.6002 188.4 66.2002 185.9 66.2002C183.7 66.2002 182 65.7002 180.9 64.7002C179.8 63.7002 179.2 62.3002 179.2 60.3002V48.0002C179.2 46.0002 180.2 44.5002 182.3 43.6002C184.4 42.7002 187.6 42.2002 192 42.2002H241.2C245.5 42.2002 248.7 42.8002 250.9 44.1002C253.1 45.3002 254.2 47.2002 254.2 49.6002C254.2 51.0002 253.5 52.6002 252.1 54.4002C250.7 56.2002 248.7 58.1002 245.9 60.2002L195.6 99.4002Z" fill="#231F20"/>
<path d="M376.9 75.9996C376.9 86.3996 372.4 94.9996 363.5 101.6C354.5 108.2 342.9 111.5 328.6 111.5C314.4 111.5 302.8 108.2 293.8 101.6C284.8 94.9996 280.4 86.3996 280.4 75.9996C280.4 65.5996 284.9 57.0996 293.8 50.4996C302.8 43.8996 314.3 40.5996 328.6 40.5996C342.8 40.5996 354.4 43.8996 363.4 50.4996C372.4 57.0996 376.9 65.5996 376.9 75.9996ZM328.6 101.2C338 101.2 345.8 98.7996 351.8 94.0996C357.8 89.3996 360.9 83.2996 360.9 75.9996C360.9 68.6996 357.9 62.5996 351.8 57.7996C345.7 52.9996 338 50.5996 328.6 50.5996C319.2 50.5996 311.5 52.9996 305.5 57.7996C299.5 62.5996 296.4 68.6996 296.4 75.9996C296.4 83.3996 299.4 89.4996 305.4 94.1996C311.5 98.7996 319.2 101.2 328.6 101.2Z" fill="#231F20"/>
<path d="M466.8 46.2998C469.8 46.2998 472 46.6998 473.4 47.4998C474.8 48.2998 475.5 49.5998 475.5 51.3998C475.5 53.0998 474.9 54.3998 473.6 55.1998C472.3 56.0998 470.4 56.4998 467.8 56.4998H430.5V80.9998C430.5 88.9998 431.8 94.2998 434.4 96.7998C437 99.2998 441.5 100.6 447.8 100.6C453.4 100.6 460.1 99.2998 467.9 96.6998C475.7 94.0998 480.5 92.7998 482.3 92.7998C484 92.7998 485.5 93.2998 486.7 94.2998C487.9 95.2998 488.5 96.4998 488.5 97.8998C488.5 99.4998 487.7 100.9 486.2 102.1C484.7 103.3 482.1 104.5 478.5 105.6C472.5 107.5 467.1 108.9 462.3 109.8C457.5 110.7 453 111.1 448.7 111.1C441.5 111.1 435.5 110.2 430.6 108.4C425.7 106.6 422.1 103.9 419.7 100.3C418.5 98.5998 417.6 96.5998 417.1 94.1998C416.6 91.8998 416.3 88.2998 416.3 83.3998V80.9998V56.5998H400.7C398.1 56.5998 396.3 56.1998 395.1 55.3998C393.9 54.5998 393.4 53.2998 393.4 51.4998C393.4 49.4998 394.2 48.0998 395.8 47.3998C397.4 46.6998 400.8 46.2998 406 46.2998H416.4V31.2998V27.3998C416.4 25.2998 417 23.7998 418.1 22.7998C419.2 21.7998 421 21.2998 423.4 21.2998C426.1 21.2998 428 21.8998 429 23.0998C430 24.2998 430.6 27.0998 430.6 31.3998V46.1998H466.8V46.2998Z" fill="#231F20"/>
</g>
<defs>
<clipPath id="clip0_1434_24034">
<rect width="488.4" height="151.6" fill="white"/>
</clipPath>
</defs>
</svg>
